<?xml version="1.0" standalone="no"?>
<!DOCTYPE svg PUBLIC "-//W3C//DTD SVG 20010904//EN"
 "http://www.w3.org/TR/2001/REC-SVG-20010904/DTD/svg10.dtd">
<svg version="1.0" xmlns="http://www.w3.org/2000/svg"
 width="700.000000pt" height="700.000000pt" viewBox="0 0 700.000000 700.000000"
 preserveAspectRatio="xMidYMid meet">
<metadata>
Created by potrace 1.14, written by Peter Selinger 2001-2017
</metadata>
<g transform="translate(0.000000,700.000000) scale(0.100000,-0.100000)"
fill="#000000" stroke="none">
<path d="M80 6983 c0 -5 -13 -8 -28 -5 -26 3 -28 1 -30 -34 -2 -20 -6 -42 -9
-48 -4 -6 2 -4 12 4 12 9 16 10 11 2 -18 -30 -25 -72 -12 -72 8 0 13 11 12 26
-1 21 4 28 22 30 15 3 21 0 17 -7 -4 -6 -14 -8 -22 -5 -9 4 -13 1 -10 -6 2 -7
15 -12 28 -11 13 1 18 -1 11 -3 -6 -3 -10 -10 -7 -15 4 -5 -2 -6 -12 -2 -16 6
-16 5 1 -16 20 -22 20 -22 0 -15 -17 7 -18 6 -4 -10 8 -10 15 -32 15 -50 2
-26 -2 -32 -20 -34 -18 -1 -22 4 -22 23 0 14 4 22 9 19 5 -3 7 -13 4 -21 -4
-9 -1 -13 6 -11 7 3 13 16 13 31 1 35 -34 33 -41 -3 -3 -14 -7 -31 -10 -38 -2
-7 0 -11 5 -8 5 3 12 -1 15 -10 3 -8 2 -13 -3 -10 -5 3 -11 -3 -14 -15 -5 -17
-3 -18 11 -7 12 10 14 10 8 0 -18 -30 -25 -72 -12 -72 8 0 13 11 12 26 -1 21
4 28 22 30 15 3 21 0 17 -7 -4 -6 -14 -8 -22 -5 -9 4 -13 1 -10 -6 2 -7 11
-12 19 -12 8 1 15 -4 15 -11 0 -8 -7 -11 -16 -7 -12 4 -12 0 3 -17 20 -22 20
-22 0 -15 -17 7 -18 6 -4 -10 8 -10 15 -32 15 -50 2 -26 -2 -32 -20 -34 -18
-1 -22 4 -23 23 0 14 5 22 10 19 5 -3 7 -13 4 -21 -4 -9 -1 -13 6 -11 7 3 13
16 13 31 1 35 -34 33 -41 -3 -3 -14 -7 -31 -10 -38 -2 -7 0 -11 5 -8 5 3 12
-1 15 -10 3 -8 2 -13 -3 -10 -5 3 -11 -3 -14 -15 -5 -17 -3 -18 11 -7 12 10
14 10 8 0 -18 -30 -25 -72 -12 -72 8 0 13 11 12 26 -1 21 4 28 22 30 15 3 21
0 17 -7 -4 -6 -14 -8 -22 -5 -9 4 -13 1 -10 -6 2 -7 11 -12 19 -12 8 1 15 -4
15 -11 0 -8 -7 -11 -16 -7 -12 4 -12 0 3 -17 20 -22 20 -22 0 -15 -17 7 -18 6
-4 -10 8 -10 15 -32 15 -50 2 -26 -2 -32 -20 -34 -18 -1 -23 4 -22 23 0 14 4
22 9 19 5 -3 7 -13 4 -21 -4 -9 -1 -13 6 -11 7 3 13 16 13 31 1 35 -34 33 -41
-3 -3 -14 -7 -31 -10 -38 -2 -7 0 -11 5 -8 5 3 12 -1 15 -10 3 -8 2 -13 -3
-10 -5 3 -11 -3 -14 -15 -5 -17 -3 -18 11 -7 12 10 14 10 8 0 -18 -30 -25 -72
-12 -72 8 0 13 11 12 26 -1 21 4 28 22 30 15 3 21 0 17 -7 -4 -6 -14 -8 -22
-5 -9 4 -13 1 -10 -6 2 -7 11 -12 19 -12 8 1 15 -4 15 -11 0 -8 -7 -11 -16 -7
-12 4 -12 0 3 -17 20 -22 20 -22 0 -15 -17 7 -18 6 -4 -10 8 -10 15 -32 15
-50 2 -26 -2 -32 -20 -34 -18 -1 -22 4 -23 23 0 14 5 22 10 19 5 -3 7 -13 4
-21 -4 -9 -1 -13 6 -11 7 3 13 16 13 31 1 35 -34 33 -41 -3 -3 -14 -7 -31 -10
-38 -2 -7 0 -11 5 -8 5 3 12 -1 15 -10 3 -8 2 -13 -3 -10 -5 3 -11 -3 -14 -15
-5 -17 -3 -18 11 -7 12 10 14 10 8 0 -18 -30 -25 -72 -12 -72 8 0 13 11 12 26
-1 21 4 28 22 30 15 3 21 0 17 -7 -4 -6 -14 -8 -22 -5 -9 4 -13 1 -10 -6 2 -7
11 -12 19 -12 8 1 15 -4 15 -11 0 -8 -7 -11 -16 -7 -12 4 -12 0 3 -17 20 -22
20 -22 0 -15 -17 7 -18 6 -4 -10 8 -10 15 -32 15 -50 2 -26 -2 -32 -20 -34
-18 -1 -22 4 -22 23 0 14 4 22 9 19 5 -3 7 -13 4 -21 -4 -9 -1 -13 6 -11 7 3
13 16 13 31 1 35 -34 33 -41 -3 -3 -14 -7 -31 -10 -38 -2 -7 0 -11 5 -8 5 3
12 -1 15 -10 3 -8 2 -13 -3 -10 -5 3 -11 -3 -14 -15 -5 -17 -3 -18 11 -7 12
10 14 10 8 0 -18 -30 -25 -72 -12 -72 8 0 13 11 12 26 -1 21 4 28 22 30 15 3
21 0 17 -7 -4 -6 -14 -8 -22 -5 -9 4 -13 1 -10 -6 2 -7 11 -12 19 -12 8 1 15
-4 15 -11 0 -8 -7 -11 -16 -7 -12 4 -12 0 3 -17 20 -22 20 -22 0 -15 -17 7
-18 6 -4 -10 8 -10 15 -32 15 -50 2 -26 -2 -32 -20 -34 -18 -1 -22 4 -22 23
-1 14 4 22 9 19 5 -3 7 -13 4 -21 -4 -9 -1 -13 6 -11 7 3 13 16 13 31 1 35
-34 33 -41 -3 -3 -14 -7 -31 -10 -38 -2 -7 0 -11 5 -8 5 3 12 -1 15 -10 3 -8
2 -13 -3 -10 -5 3 -11 -3 -14 -15 -5 -17 -3 -18 11 -7 12 10 14 10 8 0 -18
-30 -25 -72 -12 -72 8 0 13 11 12 26 -1 21 4 28 22 30 15 3 21 0 17 -7 -4 -6
-14 -8 -22 -5 -9 4 -13 1 -10 -6 2 -7 11 -12 19 -12 8 1 15 -4 15 -11 0 -8 -7
-11 -16 -7 -12 4 -12 0 3 -17 20 -22 20 -22 0 -15 -17 7 -18 6 -4 -10 8 -10
15 -32 15 -50 2 -26 -2 -32 -20 -34 -18 -1 -22 4 -23 23 0 14 5 22 10 19 5 -3
7 -13 4 -21 -4 -9 -1 -13 6 -11 7 3 13 16 13 31 1 35 -34 33 -41 -3 -3 -14 -7
-31 -10 -38 -2 -7 0 -11 5 -8 5 3 12 -1 15 -10 3 -8 2 -13 -3 -10 -5 3 -11 -3
-14 -15 -5 -17 -3 -18 11 -7 12 10 14 10 8 0 -18 -30 -25 -72 -12 -72 8 0 13
11 12 26 -1 21 4 28 22 30 15 3 21 0 17 -7 -4 -6 -14 -8 -22 -5 -9 4 -13 1
-10 -6 2 -7 11 -12 19 -12 8 1 15 -4 15 -11 0 -8 -7 -11 -16 -7 -12 4 -12 0 3
-17 20 -22 20 -22 0 -15 -17 7 -18 6 -4 -10 8 -10 15 -32 15 -50 2 -26 -2 -32
-20 -34 -18 -1 -23 4 -23 23 0 14 5 22 10 19 5 -3 7 -13 4 -21 -4 -9 -1 -13 6
-11 7 3 13 16 13 31 1 35 -34 33 -41 -3 -3 -14 -7 -31 -10 -38 -2 -7 0 -11 5
-8 5 3 12 -1 15 -10 3 -8 2 -13 -3 -10 -5 3 -11 -3 -14 -15 -5 -17 -3 -18 11
-7 12 10 14 10 8 0 -18 -30 -25 -72 -12 -72 8 0 13 11 12 26 -1 21 4 28 22 30
15 3 21 0 17 -7 -4 -6 -14 -8 -22 -5 -9 4 -13 1 -10 -6 2 -7 11 -12 19 -12 8
1 15 -4 15 -11 0 -8 -7 -11 -16 -7 -12 4 -12 0 3 -17 20 -22 20 -22 0 -15 -17
7 -18 6 -4 -10 8 -10 15 -32 15 -50 2 -26 -2 -32 -20 -34 -18 -1 -22 4 -23 23
0 14 5 22 10 19 5 -3 7 -13 4 -21 -4 -9 -1 -13 6 -11 7 3 13 16 13 31 1 35
-34 33 -41 -3 -3 -14 -7 -31 -10 -38 -2 -7 0 -11 5 -8 5 3 12 -1 15 -10 3 -8
2 -13 -3 -10 -5 3 -11 -3 -14 -15 -5 -17 -3 -18 11 -7 12 10 14 10 8 0 -18
-30 -25 -72 -12 -72 8 0 13 11 12 26 -1 21 4 28 22 30 15 3 21 0 17 -7 -4 -6
-14 -8 -22 -5 -9 4 -13 1 -10 -6 2 -7 11 -12 19 -12 8 1 15 -4 15 -11 0 -8 -7
-11 -16 -7 -12 4 -12 0 3 -17 20 -22 20 -22 0 -15 -17 7 -18 6 -4 -10 8 -10
15 -32 15 -50 2 -26 -2 -32 -20 -34 -18 -1 -23 4 -22 23 0 14 4 22 9 19 5 -3
7 -13 4 -21 -4 -9 -1 -13 6 -11 7 3 13 16 13 31 1 35 -34 33 -41 -3 -3 -14 -7
-31 -10 -38 -2 -7 0 -11 5 -8 5 3 12 -1 15 -10 3 -8 2 -13 -3 -10 -5 3 -11 -3
-14 -15 -5 -17 -3 -18 11 -7 12 10 14 10 8 0 -18 -30 -25 -72 -12 -72 8 0 13
11 12 26 -1 21 4 28 22 30 15 3 21 0 17 -7 -4 -6 -14 -8 -22 -5 -9 4 -13 1
-10 -6 2 -7 11 -12 19 -12 8 1 15 -4 15 -11 0 -8 -7 -11 -16 -7 -12 4 -12 0 3
-17 20 -22 20 -22 0 -15 -17 7 -18 6 -4 -10 8 -10 15 -32 15 -50 2 -26 -2 -32
-20 -34 -18 -1 -22 4 -22 23 0 14 4 22 9 19 5 -3 7 -13 4 -21 -4 -9 -1 -13 6
-11 7 3 13 16 13 31 1 35 -34 33 -41 -3 -3 -14 -7 -31 -10 -38 -2 -7 0 -11 5
-8 5 3 12 -1 15 -10 3 -8 2 -13 -3 -10 -5 3 -11 -3 -14 -15 -5 -17 -3 -18 11
-7 12 10 14 10 8 0 -18 -30 -25 -72 -12 -72 8 0 13 11 12 26 -1 21 4 28 22 30
15 3 21 0 17 -7 -4 -6 -14 -8 -22 -5 -9 4 -13 1 -10 -6 2 -7 11 -12 19 -12 8
1 15 -4 15 -11 0 -8 -7 -11 -16 -7 -12 4 -12 0 3 -17 20 -22 20 -22 0 -15 -17
7 -18 6 -4 -10 8 -10 15 -32 15 -50 2 -26 -2 -32 -20 -34 -18 -1 -22 4 -23 23
0 14 5 22 10 19 5 -3 7 -13 4 -21 -4 -9 -1 -13 6 -11 7 3 13 16 13 31 1 35
-34 33 -41 -3 -3 -14 -7 -31 -10 -38 -2 -7 0 -11 5 -8 5 3 12 -1 15 -10 3 -8
2 -13 -3 -10 -5 3 -11 -3 -14 -15 -5 -17 -3 -18 11 -7 12 10 14 10 8 0 -18
-30 -25 -72 -12 -72 8 0 13 11 12 26 -1 21 4 28 22 30 15 3 21 0 17 -7 -4 -6
-14 -8 -22 -5 -9 4 -13 1 -10 -6 2 -7 11 -12 19 -12 8 1 15 -4 15 -11 0 -8 -7
-11 -16 -7 -12 4 -12 0 3 -17 20 -22 20 -22 0 -15 -17 7 -18 6 -4 -10 8 -10
15 -32 15 -50 2 -26 -2 -32 -20 -34 -18 -1 -22 4 -23 23 0 14 5 22 10 19 5 -3
7 -13 4 -21 -4 -9 -1 -13 6 -11 7 3 13 16 13 31 1 35 -34 33 -41 -3 -3 -14 -7
-31 -10 -38 -2 -7 0 -11 5 -8 5 3 12 -1 15 -10 3 -8 2 -13 -3 -10 -5 3 -11 -3
-14 -15 -5 -17 -3 -18 11 -7 12 10 14 10 8 0 -18 -30 -25 -72 -12 -72 8 0 13
11 12 26 -1 21 4 28 22 30 15 3 21 0 17 -7 -4 -6 -14 -8 -22 -5 -9 4 -13 1
-10 -6 2 -7 11 -12 19 -12 8 1 15 -4 15 -11 0 -8 -7 -11 -16 -7 -12 4 -12 0 3
-17 20 -22 20 -22 0 -15 -17 7 -18 6 -4 -10 8 -10 15 -32 15 -50 2 -26 -2 -32
-20 -34 -18 -1 -22 4 -22 23 0 14 4 22 9 19 5 -3 7 -13 4 -21 -4 -9 -1 -13 6
-11 7 3 13 16 13 31 1 35 -34 33 -41 -3 -3 -14 -7 -31 -10 -38 -2 -7 0 -11 5
-8 5 3 12 -1 15 -10 3 -8 2 -13 -3 -10 -5 3 -11 -3 -14 -15 -5 -17 -3 -18 11
-7 12 10 14 10 8 0 -18 -30 -25 -72 -12 -72 8 0 13 11 12 26 -1 21 4 28 22 30
15 3 21 0 17 -7 -4 -6 -14 -8 -22 -5 -9 4 -13 1 -10 -6 2 -7 11 -12 19 -12 8
1 15 -4 15 -11 0 -8 -7 -11 -16 -7 -12 4 -12 0 3 -17 20 -22 20 -22 0 -15 -17
7 -18 6 -4 -10 8 -10 15 -32 15 -50 2 -26 -2 -32 -20 -34 -18 -1 -22 4 -22 23
0 14 4 22 9 19 5 -3 7 -13 4 -21 -4 -9 -1 -13 6 -11 7 3 13 16 13 31 1 35 -34
33 -41 -3 -3 -14 -7 -31 -10 -38 -2 -7 0 -11 5 -8 5 3 12 -1 15 -10 3 -8 2
-13 -3 -10 -5 3 -11 -3 -14 -15 -5 -17 -3 -18 11 -7 12 10 14 10 8 0 -18 -30
-25 -72 -12 -72 8 0 13 11 12 26 -1 21 4 28 22 30 15 3 21 0 17 -7 -4 -6 -14
-8 -22 -5 -9 4 -13 1 -10 -6 2 -7 11 -12 19 -12 8 1 15 -4 15 -11 0 -8 -7 -11
-16 -7 -12 4 -12 0 3 -17 20 -22 20 -22 0 -15 -17 7 -18 6 -4 -10 8 -10 15
-32 15 -50 2 -26 -2 -32 -20 -34 -18 -1 -22 4 -23 23 0 14 5 22 10 19 5 -3 7
-13 4 -21 -4 -9 -1 -13 6 -11 7 3 13 16 13 31 1 35 -34 33 -41 -3 -3 -14 -7
-31 -10 -38 -2 -7 0 -11 5 -8 5 3 12 -1 15 -10 3 -8 2 -13 -3 -10 -5 3 -11 -3
-14 -15 -5 -17 -3 -18 11 -7 12 10 14 10 8 0 -18 -30 -25 -72 -12 -72 8 0 13
11 12 26 -1 21 4 28 22 30 15 3 21 0 17 -7 -4 -6 -14 -8 -22 -5 -9 4 -13 1
-10 -6 2 -7 11 -12 19 -12 8 1 15 -4 15 -11 0 -8 -7 -11 -16 -7 -12 4 -12 0 3
-17 20 -22 20 -22 0 -15 -17 7 -18 6 -4 -10 8 -10 15 -32 15 -50 2 -26 -2 -32
-20 -34 -18 -1 -22 4 -22 23 0 14 4 22 9 19 5 -3 7 -13 4 -21 -4 -9 -1 -13 6
-11 7 3 13 16 13 31 1 35 -34 33 -41 -3 -3 -14 -7 -31 -10 -38 -2 -7 0 -11 5
-8 5 3 12 -1 15 -10 3 -8 2 -13 -3 -10 -5 3 -11 -3 -14 -15 -5 -17 -3 -18 11
-7 12 10 14 10 8 0 -18 -30 -25 -72 -12 -72 8 0 13 11 12 26 -1 21 4 28 22 30
15 3 21 0 17 -7 -4 -6 -14 -8 -22 -5 -9 4 -13 1 -10 -6 2 -7 11 -12 19 -12 8
1 15 -4 15 -11 0 -8 -7 -11 -16 -7 -12 4 -12 0 3 -17 20 -22 20 -22 0 -15 -17
7 -18 6 -4 -10 8 -10 15 -32 15 -50 2 -26 -2 -32 -20 -34 -18 -1 -22 4 -22 23
0 14 4 22 9 19 5 -3 7 -13 4 -21 -4 -9 -1 -13 6 -11 7 3 13 16 13 31 1 35 -34
33 -41 -3 -3 -14 -7 -31 -10 -38 -2 -7 0 -11 5 -8 5 3 12 -1 15 -10 3 -8 2
-13 -3 -10 -5 3 -11 -3 -14 -15 -5 -17 -3 -18 11 -7 12 10 14 10 8 0 -18 -30
-25 -72 -12 -72 8 0 13 11 12 26 -1 21 4 28 22 30 15 3 21 0 17 -7 -4 -6 -14
-8 -22 -5 -9 4 -13 1 -10 -6 2 -7 11 -12 19 -12 8 1 15 -4 15 -11 0 -8 -7 -11
-16 -7 -12 4 -12 0 3 -17 20 -22 20 -22 0 -15 -17 7 -18 6 -4 -10 8 -10 15
-32 15 -50 2 -26 -2 -32 -20 -34 -18 -1 -22 4 -22 23 0 14 4 22 9 19 5 -3 7
-13 4 -21 -4 -9 -1 -13 6 -11 7 3 13 16 13 31 1 35 -34 33 -41 -3 -3 -14 -7
-31 -10 -38 -2 -7 0 -11 5 -8 5 3 12 -1 15 -10 3 -8 2 -13 -3 -10 -5 3 -11 -3
-14 -15 -5 -17 -3 -18 11 -7 12 10 14 10 8 0 -18 -30 -25 -72 -12 -72 8 0 13
11 12 26 -1 21 4 28 22 30 15 3 21 0 17 -7 -4 -6 -14 -8 -22 -5 -9 4 -13 1
-10 -6 2 -7 11 -12 19 -12 8 1 15 -4 15 -11 0 -8 -7 -11 -16 -7 -12 4 -12 0 3
-17 20 -22 20 -22 0 -15 -17 7 -18 6 -4 -10 8 -10 15 -32 15 -50 2 -26 -2 -32
-20 -34 -18 -1 -22 4 -22 23 0 14 4 22 9 19 5 -3 7 -13 4 -21 -4 -9 -1 -13 6
-11 7 3 13 16 13 31 1 35 -34 33 -41 -3 -3 -14 -7 -31 -10 -38 -2 -7 0 -11 5
-8 5 3 12 -1 15 -10 3 -8 2 -13 -3 -10 -5 3 -11 -3 -14 -15 -5 -17 -3 -18 11
-7 12 10 14 10 8 0 -18 -30 -25 -72 -12 -72 8 0 13 11 12 26 -1 21 4 28 22 30
15 3 21 0 17 -7 -4 -6 -14 -8 -22 -5 -9 4 -13 1 -10 -6 2 -7 11 -12 19 -12 8
1 15 -4 15 -11 0 -8 -7 -11 -16 -7 -12 4 -12 0 3 -17 20 -22 20 -22 0 -15 -17
7 -18 6 -4 -10 8 -10 15 -32 15 -50 2 -26 -2 -32 -20 -34 -18 -1 -22 4 -22 23
0 14 4 22 9 19 5 -3 7 -13 4 -21 -4 -9 -1 -13 6 -11 7 3 13 16 13 31 1 35 -34
33 -41 -3 -3 -14 -7 -31 -10 -38 -2 -7 0 -11 5 -8 5 3 12 -1 15 -10 3 -8 2
-13 -3 -10 -5 3 -11 -3 -14 -15 -5 -17 -3 -18 11 -7 12 10 14 10 8 0 -18 -30
-25 -72 -12 -72 8 0 13 11 12 26 -1 21 4 28 22 30 15 3 21 0 17 -7 -4 -6 -14
-8 -22 -5 -9 4 -13 1 -10 -6 2 -7 11 -12 19 -12 8 1 15 -4 15 -11 0 -8 -7 -11
-16 -7 -12 4 -12 0 3 -17 20 -22 20 -22 0 -15 -17 7 -18 6 -4 -10 8 -10 15
-32 15 -50 2 -26 -2 -32 -20 -34 -18 -1 -23 4 -22 23 0 14 4 22 9 19 5 -3 7
-13 4 -21 -4 -9 -1 -13 6 -11 7 3 13 16 13 31 1 35 -34 33 -41 -3 -3 -14 -7
-31 -10 -38 -2 -7 0 -11 5 -8 5 3 12 -1 15 -10 3 -8 2 -13 -3 -10 -5 3 -11 -3
-14 -15 -5 -17 -3 -18 11 -7 12 10 14 10 8 0 -18 -30 -25 -72 -12 -72 8 0 13
11 12 26 -1 21 4 28 22 30 15 3 21 0 17 -7 -4 -6 -14 -8 -22 -5 -9 4 -13 1
-10 -6 2 -7 11 -12 19 -12 8 1 15 -4 15 -11 0 -8 -7 -11 -16 -7 -12 4 -12 0 3
-17 20 -22 20 -22 0 -15 -17 7 -18 6 -4 -10 8 -10 15 -32 15 -50 2 -26 -2 -32
-20 -34 -18 -1 -22 4 -22 23 0 14 4 22 9 19 5 -3 7 -13 4 -21 -4 -9 -1 -13 6
-11 7 3 13 16 13 31 1 35 -34 33 -41 -3 -3 -14 -7 -31 -10 -38 -2 -7 0 -11 5
-8 5 3 12 -1 15 -10 3 -8 2 -13 -3 -10 -5 3 -11 -3 -14 -15 -5 -17 -3 -18 11
-7 12 10 14 10 8 0 -18 -30 -25 -72 -12 -72 8 0 13 11 12 26 -1 21 4 28 22 30
15 3 21 0 17 -7 -4 -6 -14 -8 -22 -5 -9 4 -13 1 -10 -6 2 -7 11 -12 19 -12 8
1 15 -4 15 -11 0 -8 -7 -11 -16 -7 -12 4 -12 0 3 -17 20 -22 20 -22 0 -15 -17
7 -18 6 -4 -10 8 -10 15 -32 15 -50 2 -26 -2 -32 -20 -34 -18 -1 -22 4 -22 23
0 14 4 22 9 19 5 -3 7 -13 4 -21 -4 -9 -1 -13 6 -11 7 3 13 16 13 31 1 35 -34
33 -41 -3 -3 -14 -7 -31 -10 -38 -2 -7 0 -11 5 -8 5 3 12 -1 15 -10 3 -8 2
-13 -3 -10 -5 3 -11 -3 -14 -15 -5 -17 -3 -18 11 -7 12 10 14 10 8 0 -18 -30
-25 -72 -12 -72 8 0 13 11 12 26 -1 21 4 28 22 30 15 3 21 0 17 -7 -4 -6 -14
-8 -22 -5 -9 4 -13 1 -10 -6 2 -7 11 -12 19 -12 8 1 15 -4 15 -11 0 -8 -7 -11
-16 -7 -12 4 -12 0 3 -17 20 -22 20 -22 0 -15 -17 7 -18 6 -4 -10 8 -10 15
-32 15 -50 2 -26 -2 -32 -20 -34 -18 -1 -23 4 -22 23 0 14 4 22 9 19 5 -3 7
-13 4 -21 -4 -9 -1 -13 6 -11 7 3 13 16 13 31 1 35 -34 33 -41 -3 -3 -14 -7
-31 -10 -38 -2 -7 0 -11 5 -8 5 3 12 -1 15 -10 3 -8 2 -13 -3 -10 -5 3 -11 -3
-14 -15 -5 -17 -3 -18 11 -7 12 10 14 10 8 0 -18 -30 -25 -72 -12 -72 8 0 13
11 12 26 -1 21 4 28 22 30 15 3 21 0 17 -7 -4 -6 -14 -8 -22 -5 -9 4 -13 1
-10 -6 2 -7 11 -12 19 -12 8 1 15 -4 15 -11 0 -8 -7 -11 -16 -7 -12 4 -12 0 3
-17 20 -22 20 -22 0 -15 -17 7 -18 6 -4 -10 8 -10 15 -32 15 -50 2 -26 -2 -32
-20 -34 -18 -1 -23 4 -22 23 0 14 4 22 9 19 5 -3 7 -13 4 -21 -4 -9 -1 -13 6
-11 7 3 13 16 13 31 1 35 -34 33 -41 -3 -3 -14 -7 -31 -10 -38 -2 -7 0 -11 5
-8 5 3 12 -1 15 -10 3 -8 2 -13 -3 -10 -5 3 -11 -3 -14 -15 -5 -17 -3 -18 11
-7 12 10 14 10 8 0 -18 -30 -25 -72 -12 -72 8 0 13 11 12 26 -1 21 4 28 22 30
15 3 21 0 17 -7 -4 -6 -14 -8 -22 -5 -9 4 -13 1 -10 -6 2 -7 11 -12 19 -12 8
1 15 -4 15 -11 0 -8 -7 -11 -16 -7 -12 4 -12 0 3 -17 20 -22 20 -22 0 -15 -17
7 -18 6 -4 -10 8 -10 15 -32 15 -50 2 -26 -2 -32 -20 -34 -18 -1 -22 4 -22 23
0 14 4 22 9 19 5 -3 7 -13 4 -21 -4 -9 -1 -13 6 -11 7 3 13 16 13 31 1 35 -34
33 -41 -3 -3 -14 -7 -31 -10 -38 -2 -7 0 -11 5 -8 5 3 12 -1 15 -10 3 -8 2
-13 -3 -10 -5 3 -11 -3 -14 -15 -5 -17 -3 -18 11 -7 12 10 14 10 8 0 -18 -30
-25 -72 -12 -72 8 0 13 11 12 26 -1 21 4 28 22 30 15 3 21 0 17 -7 -4 -6 -14
-8 -22 -5 -9 4 -13 1 -10 -6 2 -7 11 -12 19 -12 8 1 15 -4 15 -11 0 -8 -7 -11
-16 -7 -12 4 -12 0 3 -17 20 -22 20 -22 0 -15 -17 7 -18 6 -4 -10 8 -10 15
-32 15 -50 2 -26 -2 -32 -20 -34 -18 -1 -22 4 -22 23 0 14 4 22 9 19 5 -3 7
-13 4 -21 -4 -9 -1 -13 6 -11 7 3 13 16 13 31 1 35 -34 33 -41 -3 -3 -14 -7
-31 -10 -38 -2 -7 0 -11 5 -8 5 3 12 -1 15 -10 3 -8 2 -13 -3 -10 -5 3 -11 -3
-14 -15 -5 -17 -3 -18 10 -7 14 12 15 11 5 -9 -16 -28 -15 -66 0 -82 8 -8 8
-11 2 -8 -7 4 -14 -2 -17 -13 -3 -11 -1 -17 4 -14 6 3 8 -5 5 -19 -3 -15 1
-24 10 -24 14 0 14 23 1 45 -5 7 -4 12 2 12 10 0 15 -14 12 -32 0 -5 3 -8 8
-8 21 0 20 19 -3 52 -30 45 -29 80 2 85 15 2 21 -1 17 -8 -4 -6 -14 -8 -22 -5
-9 4 -13 1 -10 -6 2 -7 11 -12 20 -12 13 1 14 -2 7 -16 -13 -24 -13 -33 0 -25
6 3 7 -1 4 -9 -4 -10 -1 -16 7 -16 7 0 10 -3 6 -6 -3 -4 1 -13 9 -21 8 -9 12
-18 9 -21 -3 -4 -10 -1 -14 6 -6 10 -10 10 -20 -1 -10 -12 -6 -15 24 -14 35 1
45 10 24 23 -13 8 8 23 41 29 18 3 25 -5 21 -27 0 -5 4 -8 10 -8 5 0 8 -4 5
-8 -3 -5 1 -9 9 -9 17 0 19 8 5 25 -7 9 -7 9 2 2 17 -14 34 -12 20 2 -7 7 -12
17 -12 22 0 6 5 3 11 -7 6 -9 15 -15 21 -11 6 4 5 10 -3 15 -9 6 -3 8 17 5 17
-2 36 -6 41 -9 6 -4 16 0 23 8 7 8 17 15 23 15 6 0 1 -7 -11 -16 -12 -8 -22
-20 -22 -25 0 -6 17 3 38 18 20 15 31 20 23 10 -7 -9 -10 -17 -7 -17 4 0 2 -8
-3 -18 -8 -15 -6 -18 15 -18 27 0 30 6 12 24 -10 10 -10 15 2 22 10 6 17 4 23
-6 5 -8 12 -12 17 -9 5 3 11 -3 14 -12 5 -16 22 -18 161 -18 85 -1 155 2 155
5 0 9 -23 30 -33 30 -5 0 -4 -7 3 -15 9 -10 9 -15 1 -15 -6 0 -11 3 -12 8 0 4
-2 15 -4 24 -3 15 0 16 16 7 11 -5 24 -7 29 -4 32 20 56 12 51 -17 0 -5 4 -8
10 -8 5 0 8 -4 5 -8 -3 -5 1 -9 9 -9 18 0 19 8 3 28 -11 12 -11 12 2 2 18 -17
38 -17 22 -1 -7 7 -12 17 -12 22 0 6 5 3 11 -7 6 -9 15 -15 21 -11 6 4 5 10
-3 15 -9 6 -3 8 17 5 17 -2 36 -6 41 -9 6 -4 16 0 23 8 7 8 17 15 23 15 6 0 1
-7 -11 -16 -12 -8 -22 -20 -22 -25 0 -6 17 3 38 18 20 15 31 20 23 10 -7 -9
-10 -17 -7 -17 4 0 2 -8 -3 -18 -8 -15 -6 -18 15 -18 27 0 30 6 12 24 -10 10
-10 15 2 22 10 6 17 4 23 -6 5 -8 12 -12 17 -9 5 3 11 -3 14 -12 5 -15 18 -18
81 -18 76 -1 84 2 63 23 -17 17 -33 15 -18 -3 9 -10 9 -15 1 -15 -6 0 -11 3
-12 8 0 4 -2 15 -4 24 -3 15 0 16 16 8 13 -7 25 -7 38 0 20 10 77 8 88 -4 4
-3 14 1 24 10 12 11 19 12 24 4 5 -8 11 -7 23 2 9 7 13 8 9 2 -4 -7 0 -17 7
-23 9 -8 17 -8 20 -2 3 5 0 12 -6 14 -7 3 2 4 20 3 18 -2 36 -6 39 -10 4 -3
14 1 24 10 12 11 19 12 24 4 5 -8 11 -7 23 2 9 7 13 8 9 2 -4 -7 0 -17 7 -23
9 -8 17 -8 20 -2 3 5 0 12 -6 14 -7 3 2 4 20 3 18 -2 36 -6 39 -10 4 -3 14 1
24 10 12 11 19 12 24 4 5 -8 11 -7 23 2 9 7 13 8 9 2 -4 -7 0 -17 7 -23 9 -8
17 -8 20 -2 3 5 0 12 -6 14 -7 3 2 4 20 3 18 -2 36 -6 39 -10 4 -3 14 1 24 10
12 11 19 12 24 4 5 -8 11 -8 21 1 9 7 14 8 13 3 -4 -21 2 -26 16 -14 15 12 20
4 16 -22 0 -5 4 -8 10 -8 5 0 8 -4 5 -8 -3 -5 1 -9 9 -9 17 0 19 8 5 25 -7 9
-7 9 2 2 17 -14 34 -12 20 2 -7 7 -12 17 -12 22 0 6 5 3 11 -7 6 -9 15 -15 21
-11 6 4 5 10 -3 15 -9 6 -3 8 17 5 17 -2 36 -6 41 -9 6 -4 16 0 23 8 7 8 17
15 23 15 6 0 1 -7 -11 -16 -12 -8 -22 -20 -22 -25 0 -6 17 3 38 18 20 15 31
20 23 10 -7 -9 -10 -17 -7 -17 4 0 2 -8 -3 -18 -8 -15 -6 -18 15 -18 27 0 30
6 12 24 -10 10 -10 15 2 22 10 6 17 4 23 -6 5 -8 12 -12 17 -9 5 3 11 -3 14
-12 5 -15 18 -18 81 -18 76 -1 84 2 63 23 -17 17 -33 15 -18 -3 9 -10 9 -15 1
-15 -6 0 -11 3 -12 8 0 4 -2 15 -4 24 -3 15 0 16 16 7 11 -5 24 -7 29 -4 32
20 56 12 51 -17 0 -5 4 -8 10 -8 5 0 8 -4 5 -8 -3 -5 1 -9 9 -9 17 0 19 8 5
25 -7 9 -7 9 2 2 17 -14 34 -12 20 2 -7 7 -12 17 -12 22 0 6 5 3 11 -7 6 -9
15 -15 21 -11 6 4 5 10 -3 15 -9 6 -3 8 17 5 17 -2 36 -6 41 -9 6 -4 16 0 23
8 7 8 17 15 23 15 6 0 1 -7 -11 -16 -12 -8 -22 -20 -22 -25 0 -6 17 3 38 18
20 15 31 20 23 10 -7 -9 -10 -17 -7 -17 4 0 2 -8 -3 -18 -8 -15 -6 -18 15 -18
27 0 30 6 12 24 -10 10 -10 15 2 22 10 6 17 4 23 -6 5 -8 12 -12 17 -9 5 3 11
-3 14 -12 5 -15 18 -18 81 -18 76 -1 84 2 63 23 -17 17 -33 15 -18 -3 9 -10 9
-15 1 -15 -6 0 -11 3 -12 8 0 4 -2 15 -4 24 -3 15 0 16 16 7 11 -5 24 -7 29
-4 32 20 56 12 51 -18 0 -4 4 -7 10 -7 5 0 8 -4 5 -8 -3 -5 1 -9 9 -9 17 0 19
8 5 25 -7 9 -7 9 2 2 17 -14 34 -12 20 2 -7 7 -12 17 -12 22 0 6 5 3 11 -7 6
-9 15 -15 21 -11 6 4 5 10 -3 15 -9 6 -3 8 17 5 17 -2 36 -6 41 -9 6 -4 16 0
23 8 7 8 17 15 23 15 6 0 1 -7 -11 -16 -12 -8 -22 -20 -22 -25 0 -6 17 3 38
18 20 15 31 20 23 10 -7 -9 -10 -17 -7 -17 4 0 2 -8 -3 -18 -8 -15 -6 -18 15
-18 27 0 30 6 12 24 -10 10 -10 15 2 22 10 6 17 4 23 -6 5 -8 12 -12 17 -9 5
3 11 -3 14 -12 5 -14 17 -18 61 -19 57 0 63 4 43 24 -17 17 -33 15 -18 -3 9
-10 9 -15 1 -15 -6 0 -11 5 -11 11 0 5 -6 7 -12 3 -9 -5 -9 -2 1 9 9 12 10 17
2 17 -6 0 -14 -7 -17 -15 -8 -20 -30 -19 -38 1 -9 24 -7 31 5 11 6 -9 15 -15
21 -11 6 4 5 10 -3 15 -9 6 -2 8 19 5 18 -2 36 -6 39 -10 4 -3 14 1 24 10 12
11 19 12 24 4 5 -8 11 -7 23 2 9 7 13 8 9 2 -4 -7 0 -17 7 -23 9 -8 17 -8 20
-2 3 5 0 12 -6 14 -7 3 2 4 20 3 18 -2 36 -6 39 -10 4 -3 14 1 24 10 12 11 19
12 24 4 5 -8 11 -7 23 2 9 7 13 8 9 2 -4 -7 0 -17 7 -23 9 -8 17 -8 20 -2 3 5
0 12 -6 14 -7 3 2 4 20 3 18 -2 36 -6 39 -10 4 -3 14 1 24 10 12 11 19 12 24
4 5 -8 11 -7 23 2 9 7 13 8 9 2 -4 -7 0 -17 7 -23 9 -8 17 -8 20 -2 3 5 0 12
-6 14 -7 3 2 4 20 3 18 -2 36 -6 39 -10 4 -3 14 1 24 10 12 11 19 12 24 4 5
-8 11 -8 21 1 12 10 14 10 12 -1 -2 -7 3 -15 11 -18 9 -3 11 0 6 8 -6 9 -3 9
14 1 11 -7 20 -19 20 -29 -1 -15 -2 -15 -6 -1 -2 11 -13 16 -29 15 -15 0 -22
-6 -19 -13 2 -7 0 -13 -5 -13 -6 0 -10 7 -10 15 0 8 -5 15 -12 15 -6 0 -8 -3
-5 -7 4 -3 3 -11 -3 -18 -7 -8 16 -11 85 -11 52 1 95 3 95 6 0 9 -23 30 -33
30 -5 0 -4 -7 3 -15 9 -10 9 -15 1 -15 -6 0 -11 3 -12 8 0 4 -2 15 -4 24 -3
15 0 16 16 7 11 -5 24 -7 29 -4 32 20 56 12 51 -17 0 -5 4 -8 10 -8 5 0 8 -4
5 -8 -3 -5 1 -9 9 -9 17 0 19 8 5 25 -7 9 -7 9 2 2 17 -14 34 -12 20 2 -7 7
-12 17 -12 22 0 6 5 3 11 -7 6 -9 15 -15 21 -11 6 4 5 10 -3 15 -9 6 -3 8 17
5 17 -2 36 -6 41 -9 6 -4 16 0 23 8 7 8 17 15 23 15 6 0 1 -7 -11 -16 -12 -8
-22 -20 -22 -25 0 -6 17 3 38 18 20 15 31 20 23 10 -7 -9 -10 -17 -7 -17 4 0
2 -8 -3 -18 -8 -15 -6 -18 15 -18 27 0 30 6 12 24 -10 10 -10 15 2 22 10 6 17
4 23 -6 5 -8 12 -12 17 -9 5 3 11 -3 14 -12 5 -16 22 -18 161 -18 85 -1 155 2
155 5 0 9 -23 30 -33 30 -5 0 -4 -7 3 -15 9 -10 9 -15 1 -15 -6 0 -11 3 -12 8
0 4 -2 15 -4 24 -3 15 0 16 16 7 11 -5 24 -7 29 -4 32 20 56 12 51 -17 0 -5 4
-8 10 -8 5 0 8 -4 5 -8 -3 -5 1 -9 9 -9 17 0 19 8 5 25 -7 9 -7 9 2 2 17 -14
34 -12 20 2 -7 7 -12 17 -12 22 0 6 5 3 11 -7 6 -9 15 -15 21 -11 6 4 5 10 -3
15 -9 6 -3 8 17 5 17 -2 36 -6 41 -9 6 -4 16 0 23 8 7 8 17 15 23 15 6 0 1 -7
-11 -16 -12 -8 -22 -20 -22 -25 0 -6 17 3 38 18 20 15 31 20 23 10 -7 -9 -10
-17 -7 -17 4 0 2 -8 -3 -18 -8 -15 -6 -18 15 -18 27 0 30 6 12 24 -10 10 -10
15 2 22 10 6 17 4 23 -6 5 -8 12 -12 17 -9 5 3 11 -3 14 -12 5 -15 18 -18 81
-18 76 -1 84 2 63 23 -17 17 -33 15 -18 -3 9 -10 9 -15 1 -15 -6 0 -11 3 -12
8 0 4 -2 15 -4 24 -3 15 0 16 16 8 13 -8 25 -7 39 0 25 14 61 -3 59 -28 -1
-14 -2 -14 -6 -1 -4 16 -63 23 -63 7 0 -4 5 -8 11 -8 5 0 8 -3 6 -7 -3 -5 28
-8 69 -8 75 -1 83 2 62 23 -17 17 -33 15 -18 -3 9 -10 9 -15 1 -15 -6 0 -11 3
-12 8 0 4 -2 15 -4 24 -3 15 0 16 16 7 11 -5 24 -7 29 -4 32 20 56 12 51 -17
0 -5 4 -8 10 -8 5 0 8 -4 5 -8 -3 -5 1 -9 9 -9 17 0 19 8 5 25 -7 9 -7 9 2 2
17 -14 34 -12 20 2 -7 7 -12 17 -12 22 0 6 5 3 11 -7 6 -9 15 -15 21 -11 6 4
5 10 -3 15 -9 6 -3 8 17 5 17 -2 36 -6 41 -9 6 -4 16 0 23 8 7 8 17 15 23 15
6 0 1 -7 -11 -16 -12 -8 -22 -20 -22 -25 0 -6 17 3 37 18 21 15 32 20 24 10
-7 -9 -10 -17 -7 -17 4 0 2 -8 -3 -18 -8 -15 -6 -18 15 -18 27 0 30 6 12 24
-10 10 -10 15 2 22 10 6 17 4 23 -6 5 -8 12 -12 17 -9 5 3 11 -3 14 -12 5 -16
22 -18 161 -18 85 -1 155 2 155 5 0 9 -23 30 -33 30 -5 0 -4 -7 3 -15 9 -10 9
-15 1 -15 -6 0 -11 3 -12 8 0 4 -2 15 -4 24 -3 15 0 16 16 7 11 -5 24 -7 29
-4 32 20 56 12 51 -17 0 -5 4 -8 10 -8 5 0 8 -4 5 -8 -3 -5 1 -9 9 -9 17 0 19
8 5 25 -7 9 -7 9 2 2 17 -14 34 -12 20 2 -7 7 -12 17 -12 22 0 6 5 3 11 -7 6
-9 15 -15 21 -11 6 4 5 10 -3 15 -9 6 -3 8 17 5 17 -2 36 -6 41 -9 6 -4 16 0
23 8 7 8 17 15 23 15 6 0 1 -7 -11 -16 -12 -8 -22 -20 -22 -25 0 -6 17 3 38
18 20 15 31 20 23 10 -7 -9 -10 -17 -7 -17 4 0 2 -8 -3 -18 -8 -15 -6 -18 15
-18 27 0 30 6 12 24 -10 10 -10 15 2 22 10 6 17 4 23 -6 5 -8 12 -12 17 -9 5
3 11 -3 14 -12 5 -15 18 -18 81 -18 76 -1 84 2 63 23 -17 17 -33 15 -18 -3 9
-10 9 -15 1 -15 -6 0 -11 3 -12 8 0 4 -2 15 -4 24 -3 15 0 16 16 8 13 -7 25
-7 38 0 20 10 77 8 88 -4 4 -3 14 1 24 10 12 11 19 12 24 4 5 -8 11 -7 23 2 9
7 13 8 9 2 -4 -7 0 -17 7 -23 9 -8 17 -8 20 -2 3 5 0 12 -6 14 -7 3 2 4 20 3
18 -2 36 -6 39 -10 4 -3 14 1 24 10 12 11 19 12 24 4 5 -8 11 -7 23 2 9 7 13
8 9 2 -4 -7 0 -17 7 -23 9 -8 17 -8 20 -2 3 5 0 12 -6 14 -7 3 2 4 20 3 18 -2
36 -6 39 -10 4 -3 14 1 24 10 12 11 19 12 24 4 5 -8 11 -7 23 2 9 7 13 8 9 2
-10 -17 41 -59 73 -60 24 -1 31 4 39 28 6 18 7 26 1 23 -6 -4 -10 -2 -10 4 0
12 -37 6 -56 -10 -12 -9 -18 -9 -27 0 -9 10 -9 12 3 10 24 -4 51 12 43 25 -4
6 -9 20 -10 31 -2 16 -1 17 6 5 5 -8 7 -18 5 -22 -6 -10 10 -11 19 -1 4 3 2
12 -4 20 -9 10 -8 17 1 28 15 18 0 20 -20 3 -12 -11 -12 -10 -1 5 18 23 40 22
38 -2 0 -11 -5 -17 -9 -15 -14 9 -8 -9 9 -28 12 -13 13 -18 4 -16 -7 2 -15 -2
-18 -8 -2 -6 3 -11 12 -11 15 0 20 11 15 32 -1 6 -2 41 -1 79 2 72 -8 92 -39
76 -13 -7 -16 -3 -15 20 0 25 2 27 16 14 8 -8 19 -11 24 -7 4 5 5 2 1 -4 -4
-7 -3 -13 2 -13 6 0 13 7 16 16 3 8 2 12 -4 9 -6 -3 -10 -1 -10 5 0 6 -4 9 -9
6 -11 -7 -37 24 -37 43 1 23 21 23 41 1 12 -14 14 -20 6 -18 -7 2 -15 -2 -18
-8 -2 -6 3 -11 11 -11 18 0 27 19 17 36 -4 6 -5 32 -1 56 4 24 3 42 -1 39 -9
-5 -3 71 7 87 4 8 3 9 -4 5 -7 -4 -12 -3 -12 3 0 5 -12 8 -27 6 -16 -2 -22 -2
-15 1 6 3 9 11 5 17 -4 7 -8 24 -8 38 -1 26 0 26 22 10 25 -18 28 -27 13 -36
-15 -9 -12 -22 5 -22 17 0 17 3 16 72 -2 85 0 128 6 138 3 6 1 7 -5 3 -12 -7
-9 65 4 85 4 8 3 9 -4 5 -7 -4 -12 -3 -12 3 0 5 -12 8 -27 6 -16 -2 -22 -2
-15 1 6 3 9 11 5 17 -4 7 -9 21 -10 32 -2 16 -1 17 6 5 5 -8 7 -18 5 -22 -6
-10 10 -11 19 -1 4 3 2 12 -4 20 -9 10 -8 17 1 28 15 18 0 20 -20 2 -12 -10
-12 -9 -1 5 18 24 40 23 38 -1 0 -11 -5 -17 -9 -15 -14 9 -8 -9 9 -28 12 -13
13 -18 4 -16 -7 2 -15 -2 -18 -8 -2 -6 3 -11 12 -11 15 0 20 11 15 32 -1 6 -2
41 -1 79 2 72 -8 92 -39 76 -13 -7 -16 -3 -15 20 0 25 2 27 16 14 8 -8 19 -11
24 -7 4 5 5 2 1 -5 -4 -6 -3 -12 2 -12 6 0 13 7 16 16 3 8 2 12 -4 9 -6 -3
-10 -1 -10 5 0 6 -4 9 -9 6 -11 -7 -37 24 -37 43 1 23 21 23 41 1 12 -14 14
-20 6 -18 -7 2 -15 -2 -18 -8 -2 -6 3 -11 11 -11 18 0 27 19 17 36 -4 6 -5 32
-1 56 4 24 3 42 -1 39 -9 -5 -3 71 7 87 4 8 3 9 -4 5 -7 -4 -12 -3 -12 3 0 5
-12 8 -27 6 -16 -2 -22 -2 -15 1 6 3 9 11 5 17 -4 7 -9 21 -10 32 -2 16 -1 17
6 5 5 -8 7 -18 5 -22 -6 -10 10 -11 19 -1 4 3 2 12 -4 20 -9 10 -8 17 1 28 15
18 0 20 -20 2 -12 -10 -12 -9 -1 6 18 23 40 22 38 -2 0 -11 -5 -17 -9 -15 -14
9 -8 -9 9 -28 12 -13 13 -18 4 -16 -7 2 -15 -2 -18 -8 -2 -6 3 -11 12 -11 15
0 20 11 15 32 -1 6 -2 41 -1 79 2 72 -8 92 -39 76 -13 -7 -16 -3 -15 20 0 25
2 27 16 14 8 -8 19 -11 24 -7 4 5 5 2 1 -4 -4 -7 -3 -13 2 -13 6 0 13 7 16 16
3 8 2 12 -4 9 -6 -3 -10 -1 -10 5 0 6 -4 9 -9 6 -11 -7 -37 24 -37 43 1 23 21
23 41 1 12 -14 14 -20 6 -18 -7 2 -15 -2 -18 -8 -2 -6 3 -11 11 -11 18 0 27
19 17 36 -4 6 -5 32 -1 56 4 24 3 42 -1 39 -9 -5 -3 71 7 87 4 8 3 9 -4 5 -7
-4 -12 -3 -12 3 0 5 -12 8 -27 6 -16 -2 -22 -2 -15 1 6 3 9 11 5 17 -11 18
-12 56 -2 63 6 4 6 10 -1 19 -8 9 -6 14 6 19 14 5 14 9 3 22 -19 23 -19 53 0
46 13 -4 12 -1 -3 16 -14 16 -16 25 -8 35 9 10 8 17 0 25 -7 7 -8 12 -2 12 5
0 10 9 11 20 1 11 -2 18 -6 16 -4 -3 -8 1 -8 9 0 8 3 12 7 10 15 -9 48 26 52
55 4 23 1 30 -13 30 -9 0 -21 -6 -26 -12 -14 -17 -12 -50 1 -45 6 2 10 11 8
20 -1 8 1 18 6 21 4 2 8 -4 9 -14 2 -20 -23 -47 -34 -36 -12 11 -13 45 -2 51
7 5 7 11 -1 20 -8 9 -6 14 6 19 14 5 14 9 3 22 -19 23 -19 53 0 46 13 -4 12
-1 -3 16 -14 16 -16 25 -8 35 9 10 8 17 0 25 -7 7 -8 12 -2 12 5 0 10 9 11 20
1 11 -2 18 -6 16 -4 -3 -8 1 -8 9 0 8 3 12 7 10 11 -7 47 23 53 45 3 11 1 18
-4 14 -5 -3 -9 0 -9 6 0 6 -4 9 -9 6 -11 -7 -37 24 -37 43 1 23 21 23 41 1 12
-14 14 -20 6 -18 -7 2 -15 -2 -18 -8 -2 -6 3 -11 11 -11 18 0 27 19 17 36 -4
6 -5 32 -1 56 4 24 3 42 -1 39 -9 -5 -3 71 7 87 4 8 3 9 -4 5 -7 -4 -12 -3
-12 3 0 5 -12 8 -27 6 -16 -2 -22 -2 -15 1 6 3 9 11 5 17 -4 7 -9 21 -10 32
-2 16 -1 17 6 5 5 -8 7 -18 5 -22 -6 -10 10 -11 19 -1 4 3 2 12 -4 20 -9 10
-8 17 1 28 15 18 0 20 -20 3 -12 -11 -12 -10 -1 5 18 23 40 22 38 -2 0 -11 -5
-17 -9 -15 -14 9 -8 -9 9 -28 12 -13 13 -18 4 -16 -7 2 -15 -2 -18 -8 -2 -6 3
-11 12 -11 15 0 20 11 15 32 -1 6 -2 41 -1 79 2 72 -8 92 -39 76 -13 -7 -16
-3 -15 20 0 25 2 27 16 14 8 -8 19 -11 24 -7 4 5 5 2 1 -4 -4 -7 -3 -13 2 -13
6 0 13 7 16 16 3 8 2 12 -4 9 -6 -3 -10 -1 -10 5 0 6 -4 9 -9 6 -11 -7 -37 24
-37 43 1 23 21 23 41 1 12 -14 14 -20 6 -18 -7 2 -15 -2 -18 -8 -2 -6 3 -11
11 -11 18 0 27 19 17 36 -4 6 -5 32 -1 56 4 24 3 42 -1 39 -9 -5 -3 71 7 87 4
8 3 9 -4 5 -7 -4 -12 -3 -12 3 0 5 -12 8 -27 6 -16 -2 -22 -2 -15 1 6 3 9 11
5 17 -4 7 -9 21 -10 32 -2 16 -1 17 6 5 5 -8 7 -18 5 -22 -6 -10 10 -11 19 -1
4 3 2 12 -4 20 -9 10 -8 17 1 28 15 18 0 20 -20 3 -12 -11 -12 -10 -1 5 18 23
40 22 38 -2 0 -11 -5 -17 -9 -15 -14 9 -8 -9 9 -28 12 -13 13 -18 4 -16 -7 2
-15 -2 -18 -8 -2 -6 3 -11 12 -11 15 0 20 11 15 32 -1 6 -2 41 -1 79 2 72 -8
92 -39 76 -13 -7 -16 -3 -15 20 0 25 2 27 16 14 8 -8 19 -11 24 -7 4 5 5 2 1
-4 -4 -7 -3 -13 2 -13 6 0 13 7 16 16 3 8 2 12 -4 9 -6 -3 -10 -1 -10 5 0 6
-4 9 -9 6 -11 -7 -37 24 -37 43 1 23 21 23 41 1 12 -14 14 -20 6 -18 -7 2 -15
-2 -18 -8 -2 -6 3 -11 11 -11 18 0 27 19 17 36 -4 6 -5 32 -1 56 4 24 3 42 -1
39 -9 -5 -3 71 7 87 4 8 3 9 -4 5 -7 -4 -12 -3 -12 3 0 5 -12 8 -27 6 -16 -2
-22 -2 -15 1 6 3 9 11 5 17 -11 18 -12 56 -2 63 6 4 6 10 -1 19 -8 9 -6 14 6
19 14 5 14 9 3 22 -19 23 -19 53 0 46 13 -4 12 -1 -3 16 -14 16 -16 25 -8 35
9 10 8 17 0 25 -7 7 -8 12 -2 12 5 0 10 9 11 20 1 11 -2 18 -6 16 -4 -3 -8 1
-8 9 0 8 3 12 7 10 15 -9 48 26 52 55 4 23 1 30 -13 30 -9 0 -21 -6 -26 -12
-14 -17 -12 -50 1 -45 6 2 10 11 8 20 -1 8 1 18 6 21 4 2 8 -4 9 -14 2 -20
-23 -47 -34 -36 -12 11 -13 45 -2 51 7 5 7 11 -1 20 -8 9 -6 14 6 19 14 5 14
9 3 22 -19 23 -19 53 0 46 13 -4 12 -1 -3 16 -14 16 -16 25 -8 35 9 10 8 17 0
25 -7 7 -8 12 -2 12 5 0 10 9 11 20 1 11 -2 18 -6 16 -4 -3 -8 1 -8 9 0 8 3
12 7 10 15 -9 48 26 52 55 4 23 1 30 -13 30 -9 0 -21 -6 -26 -12 -14 -17 -12
-50 1 -45 6 2 10 11 8 20 -1 8 1 18 6 21 4 2 8 -4 9 -14 2 -20 -23 -47 -34
-36 -12 11 -13 45 -2 51 7 5 7 11 -1 20 -8 9 -6 14 6 19 14 5 14 9 3 22 -19
23 -19 53 0 46 13 -4 12 -1 -3 16 -14 16 -16 25 -8 35 9 10 8 17 0 25 -7 7 -8
12 -2 12 5 0 10 9 11 20 1 11 -2 18 -6 16 -4 -3 -8 1 -8 9 0 8 3 12 7 10 15
-9 48 26 52 55 4 23 1 30 -13 30 -9 0 -21 -6 -26 -13 -14 -16 -12 -49 1 -44 6
2 10 11 8 20 -1 8 1 18 6 21 4 2 8 -4 9 -14 2 -20 -23 -47 -34 -36 -12 11 -13
45 -2 51 7 5 7 11 -1 20 -8 9 -6 14 6 19 14 5 14 9 3 22 -19 23 -19 53 0 46
13 -4 12 -1 -3 16 -14 16 -16 25 -8 35 9 10 8 17 0 25 -7 7 -8 12 -2 12 5 0
10 9 11 20 1 11 -2 18 -6 16 -4 -3 -8 1 -8 9 0 8 4 12 8 10 4 -3 17 3 29 13
17 14 22 28 21 62 -2 83 0 124 6 133 3 6 1 7 -5 3 -12 -7 -9 65 4 85 4 8 3 9
-4 5 -7 -4 -12 -3 -12 3 0 5 -12 8 -27 6 -16 -2 -22 -2 -15 1 6 3 9 11 5 17
-4 7 -9 21 -10 32 -2 16 -1 17 6 5 5 -8 7 -18 5 -22 -6 -10 10 -11 19 -1 4 3
2 12 -4 20 -9 10 -8 17 1 28 15 18 0 20 -20 3 -12 -11 -12 -10 -1 5 18 23 40
22 38 -2 0 -11 -5 -17 -9 -15 -14 9 -8 -9 9 -28 12 -13 13 -18 4 -16 -7 2 -15
-2 -18 -8 -2 -6 3 -11 12 -11 15 0 20 11 15 32 -1 6 -2 41 -1 79 2 72 -8 92
-39 76 -13 -7 -16 -3 -15 20 0 25 2 27 16 14 8 -8 19 -11 24 -7 4 5 5 2 1 -4
-4 -7 -3 -13 2 -13 6 0 13 7 16 16 3 8 2 12 -4 9 -6 -3 -10 -1 -10 5 0 6 -4 9
-9 6 -11 -7 -37 24 -37 43 1 23 21 23 41 1 12 -14 14 -20 6 -18 -7 2 -15 -2
-18 -8 -2 -6 3 -11 11 -11 18 0 27 19 17 36 -4 6 -5 32 -1 56 4 24 3 42 -1 39
-9 -5 -3 71 7 87 4 8 3 9 -4 5 -7 -4 -12 -3 -12 3 0 5 -12 8 -27 6 -16 -2 -22
-2 -15 1 6 3 9 11 5 17 -4 7 -9 21 -10 32 -2 16 -1 17 6 5 5 -8 7 -18 5 -22
-6 -10 10 -11 19 -1 4 3 2 12 -4 20 -9 10 -8 17 1 28 15 18 0 20 -20 3 -12
-11 -12 -10 -1 5 18 23 40 22 38 -2 0 -11 -5 -17 -9 -15 -14 9 -8 -9 9 -28 12
-13 13 -18 4 -16 -7 2 -15 -2 -18 -8 -2 -6 3 -11 12 -11 15 0 20 11 15 32 -1
6 -2 41 -1 79 2 72 -8 92 -39 76 -13 -7 -16 -3 -15 20 0 25 2 27 16 14 8 -8
19 -11 24 -7 4 5 5 2 1 -4 -4 -7 -3 -13 2 -13 6 0 13 7 16 16 3 8 2 12 -4 9
-6 -3 -10 -1 -10 5 0 6 -4 9 -9 6 -11 -7 -37 24 -37 43 1 23 21 23 41 1 12
-14 14 -20 6 -18 -7 2 -15 -2 -18 -8 -2 -6 3 -11 11 -11 18 0 27 19 17 36 -4
6 -5 32 -1 56 4 24 3 42 -1 39 -9 -5 -3 71 7 87 4 8 3 9 -4 5 -7 -4 -12 -3
-12 3 0 5 -12 8 -27 6 -16 -2 -22 -2 -15 1 6 3 9 11 5 17 -11 18 -12 56 -2 63
6 4 6 10 -1 19 -8 9 -6 14 6 19 14 5 14 9 3 22 -19 23 -19 53 0 46 13 -4 12
-1 -3 16 -14 16 -16 25 -8 35 9 10 8 17 0 25 -7 7 -8 12 -2 12 5 0 10 9 11 20
1 11 -2 18 -6 16 -4 -3 -8 1 -8 9 0 8 4 12 8 10 15 -10 49 31 49 60 0 17 0 86
-1 153 l0 124 -26 -7 c-18 -4 -23 -2 -17 6 4 8 3 9 -4 5 -6 -4 -32 -7 -56 -8
-26 0 -51 -7 -57 -14 -14 -17 2 -18 20 -1 11 10 13 10 7 0 -8 -15 10 -18 19
-3 8 13 55 8 83 -10 24 -16 30 -33 9 -24 -7 2 -13 -4 -14 -15 -1 -11 4 -19 10
-17 7 1 9 1 5 -1 -5 -3 -8 -9 -8 -14 0 -6 4 -8 8 -5 4 2 9 -8 10 -24 1 -16 -3
-32 -8 -35 -7 -4 -9 3 -5 22 6 27 6 27 -9 9 -9 -12 -14 -30 -11 -47 3 -15 2
-30 -3 -33 -4 -2 -7 20 -7 49 0 42 3 51 15 47 12 -5 11 -1 -3 21 -9 15 -14 27
-9 27 4 0 8 9 9 21 2 19 0 20 -15 6 -20 -18 -54 -16 -78 4 -16 13 -17 12 -10
-5 7 -20 7 -20 -15 0 -17 15 -21 15 -17 3 4 -9 1 -16 -8 -16 -7 0 -10 5 -7 10
3 6 -3 16 -13 24 -18 13 -17 14 9 9 19 -3 27 -1 27 10 0 8 -4 13 -10 9 -18
-11 -110 -13 -103 -2 3 5 1 7 -5 4 -5 -4 -30 -8 -54 -8 -41 -2 -78 -21 -78
-42 0 -6 12 0 27 14 14 13 23 18 19 12 -8 -15 10 -18 19 -4 8 14 63 10 76 -5
8 -10 16 -11 30 -4 15 9 17 8 12 -7 -6 -16 -5 -16 10 -4 9 7 17 9 17 3 0 -14
-28 -23 -35 -12 -4 7 -13 6 -25 0 -17 -9 -19 -8 -13 7 6 17 5 17 -13 2 -22
-19 -55 -19 -80 2 -16 12 -17 12 -12 -1 4 -11 -2 -15 -23 -15 -15 -1 -25 3
-22 9 3 5 -3 15 -13 23 -18 13 -17 14 9 9 19 -3 27 -1 27 10 0 8 -4 13 -10 9
-18 -11 -110 -13 -103 -2 3 6 1 7 -5 3 -6 -4 -32 -7 -56 -8 -26 0 -51 -7 -57
-14 -14 -17 2 -18 20 -1 11 10 13 10 7 0 -8 -15 10 -18 19 -4 8 14 63 10 76
-5 8 -10 16 -11 30 -4 15 9 17 8 12 -7 -6 -16 -5 -16 10 -4 9 7 17 9 17 3 0
-14 -28 -23 -35 -12 -4 7 -13 6 -25 0 -17 -9 -19 -8 -13 7 6 17 5 17 -13 2
-22 -19 -55 -19 -80 2 -16 13 -17 12 -10 -5 7 -20 7 -20 -15 0 -17 15 -21 15
-17 3 4 -9 1 -16 -8 -16 -7 0 -10 5 -7 10 3 6 -3 16 -13 24 -18 13 -17 14 9 9
19 -3 27 -1 27 10 0 8 -4 13 -10 9 -18 -11 -110 -13 -103 -2 3 5 1 7 -5 4 -5
-4 -30 -8 -54 -8 -41 -2 -78 -21 -78 -42 0 -6 12 0 27 14 14 13 23 18 19 12
-8 -15 10 -18 19 -4 8 14 63 10 76 -5 8 -10 16 -11 30 -4 15 9 17 8 12 -7 -6
-16 -5 -16 10 -4 9 7 17 9 17 3 0 -14 -28 -23 -35 -12 -4 7 -13 6 -25 0 -17
-9 -19 -8 -13 7 6 17 5 17 -13 2 -22 -19 -55 -19 -80 2 -16 12 -17 12 -12 -1
4 -11 -2 -15 -23 -15 -15 -1 -25 3 -22 9 3 5 -3 15 -13 23 -18 13 -17 14 9 9
19 -3 27 -1 27 10 0 8 -4 13 -10 9 -18 -11 -110 -13 -103 -2 3 6 1 7 -5 3 -6
-4 -32 -7 -56 -8 -26 0 -51 -7 -57 -14 -14 -17 2 -18 20 -1 11 10 13 10 7 0
-8 -15 10 -18 19 -4 8 14 63 10 76 -5 8 -10 16 -11 30 -4 15 9 17 8 12 -7 -6
-16 -5 -16 10 -4 9 7 17 9 17 3 0 -14 -28 -23 -35 -12 -4 7 -13 6 -25 0 -17
-9 -19 -8 -13 7 6 17 5 17 -13 2 -22 -19 -55 -19 -80 2 -16 13 -17 12 -10 -5
7 -20 7 -20 -15 0 -17 15 -21 15 -17 3 4 -9 1 -16 -8 -16 -7 0 -10 5 -7 10 3
6 -3 16 -13 24 -18 13 -17 14 9 9 19 -3 27 -1 27 10 0 8 -4 13 -10 9 -18 -11
-110 -13 -103 -2 3 5 1 7 -5 4 -5 -4 -30 -8 -54 -8 -41 -2 -78 -21 -78 -42 0
-6 12 0 27 14 14 13 23 18 19 12 -8 -15 10 -18 19 -4 8 14 63 10 76 -5 8 -10
16 -11 30 -4 15 9 17 8 12 -7 -6 -16 -5 -16 10 -4 9 7 17 9 17 3 0 -14 -28
-23 -35 -12 -4 7 -13 6 -25 0 -17 -9 -19 -8 -13 7 6 17 5 17 -13 2 -22 -19
-55 -19 -80 2 -16 12 -17 12 -12 -1 4 -11 -2 -15 -23 -15 -15 -1 -25 3 -22 9
3 5 -3 15 -13 23 -18 13 -17 14 9 9 19 -3 27 -1 27 10 0 8 -4 13 -10 9 -18
-11 -110 -13 -103 -2 3 6 1 7 -5 3 -6 -4 -32 -7 -56 -8 -26 0 -51 -7 -57 -14
-14 -17 2 -18 20 -1 11 10 13 10 7 0 -8 -15 10 -18 19 -4 8 14 63 10 76 -5 8
-10 16 -11 30 -4 15 9 17 8 12 -7 -6 -16 -5 -16 10 -4 9 7 17 9 17 3 0 -14
-28 -23 -35 -12 -4 7 -13 6 -25 0 -17 -9 -19 -8 -13 7 6 17 5 17 -13 2 -22
-19 -55 -19 -80 2 -16 13 -17 12 -10 -5 7 -20 7 -20 -15 0 -17 15 -21 15 -17
3 4 -9 1 -16 -8 -16 -7 0 -10 5 -7 10 3 6 -3 16 -13 24 -18 13 -17 14 9 9 19
-3 27 -1 27 10 0 8 -4 13 -10 9 -18 -11 -110 -13 -103 -2 3 5 1 7 -5 4 -5 -4
-30 -8 -54 -8 -41 -2 -78 -21 -78 -42 0 -6 12 0 27 14 14 13 23 18 19 12 -8
-15 10 -18 19 -4 8 14 63 10 76 -5 8 -10 16 -11 30 -4 15 9 17 8 12 -7 -6 -16
-5 -16 10 -4 9 7 17 9 17 3 0 -14 -28 -23 -35 -12 -4 7 -13 6 -25 0 -17 -9
-19 -8 -13 7 6 17 5 17 -13 2 -22 -19 -55 -19 -80 2 -16 12 -17 12 -12 -1 4
-11 -2 -15 -23 -15 -15 -1 -25 3 -22 9 3 5 -3 15 -13 23 -18 13 -17 14 9 9 19
-3 27 -1 27 10 0 8 -4 13 -10 9 -18 -11 -110 -13 -103 -2 3 6 1 7 -5 3 -6 -4
-32 -7 -56 -8 -26 0 -51 -7 -57 -14 -14 -17 2 -18 20 -1 11 10 13 10 7 0 -8
-15 10 -18 19 -4 8 14 63 10 76 -5 8 -10 16 -11 30 -4 15 9 17 8 12 -7 -6 -16
-5 -16 10 -4 9 7 17 9 17 3 0 -14 -28 -23 -35 -12 -4 7 -13 6 -25 0 -17 -9
-19 -8 -13 7 6 17 5 17 -13 2 -22 -19 -55 -19 -80 2 -16 13 -17 12 -10 -5 7
-20 7 -20 -15 0 -17 15 -21 15 -17 3 4 -9 1 -16 -8 -16 -7 0 -10 5 -7 10 3 6
-3 16 -13 24 -18 13 -17 14 9 9 19 -3 27 -1 27 10 0 8 -4 13 -10 9 -18 -11
-110 -13 -103 -2 3 5 1 7 -5 4 -5 -4 -30 -8 -54 -8 -41 -2 -78 -21 -78 -42 0
-6 12 0 27 14 14 13 23 18 19 12 -8 -15 10 -18 19 -4 8 14 63 10 76 -5 8 -10
16 -11 30 -4 15 9 17 8 12 -7 -6 -16 -5 -16 10 -4 9 7 17 9 17 3 0 -14 -28
-23 -35 -12 -4 7 -13 6 -25 0 -17 -9 -19 -8 -13 7 6 17 5 17 -13 2 -22 -19
-55 -19 -80 2 -16 12 -17 12 -12 -1 4 -11 -2 -15 -23 -15 -15 -1 -25 3 -22 9
3 5 -3 15 -13 23 -18 13 -17 14 9 9 19 -3 27 -1 27 10 0 8 -4 13 -10 9 -18
-11 -110 -13 -103 -2 3 6 1 7 -5 3 -6 -4 -32 -7 -56 -8 -26 0 -51 -7 -57 -14
-14 -17 2 -18 20 -1 11 10 13 10 7 0 -8 -15 10 -18 19 -4 8 14 63 10 76 -5 8
-10 16 -11 30 -4 15 9 17 8 12 -7 -6 -16 -5 -16 10 -4 9 7 17 9 17 3 0 -14
-28 -23 -35 -12 -4 7 -13 6 -25 0 -17 -9 -19 -8 -13 7 6 17 5 17 -13 2 -22
-19 -55 -19 -80 2 -16 13 -17 12 -10 -5 7 -20 7 -20 -15 0 -17 15 -21 15 -17
3 4 -9 1 -16 -8 -16 -7 0 -10 5 -7 10 3 6 -3 16 -13 24 -18 13 -17 14 9 9 19
-3 27 -1 27 10 0 8 -4 13 -10 9 -18 -11 -110 -13 -103 -2 3 5 1 7 -5 4 -5 -4
-30 -8 -54 -8 -41 -2 -78 -21 -78 -42 0 -6 12 0 27 14 14 13 23 18 19 12 -8
-15 10 -18 19 -4 8 14 63 10 76 -5 8 -10 16 -11 30 -4 15 9 17 8 12 -7 -6 -16
-5 -16 10 -4 9 7 17 9 17 3 0 -14 -28 -23 -35 -12 -4 7 -13 6 -25 0 -17 -9
-19 -8 -13 7 6 17 5 17 -13 2 -22 -19 -55 -19 -80 2 -16 12 -17 12 -12 -1 4
-11 -2 -15 -23 -15 -15 -1 -25 3 -22 9 3 5 -3 15 -13 23 -18 13 -17 14 9 9 19
-3 27 -1 27 10 0 8 -4 13 -10 9 -18 -11 -110 -13 -103 -2 3 6 1 7 -5 3 -6 -4
-32 -7 -56 -8 -26 0 -51 -7 -57 -14 -14 -17 2 -18 20 -1 11 10 13 10 7 0 -8
-15 10 -18 19 -4 8 14 63 10 76 -5 8 -10 16 -11 30 -4 15 9 17 8 12 -7 -6 -16
-5 -16 10 -4 9 7 17 9 17 3 0 -14 -28 -23 -35 -12 -4 7 -13 6 -25 0 -17 -9
-19 -8 -13 7 6 17 5 17 -13 2 -22 -19 -55 -19 -80 2 -16 13 -17 12 -10 -5 7
-20 7 -20 -15 0 -17 15 -21 15 -17 3 4 -9 1 -16 -8 -16 -7 0 -10 5 -7 10 3 6
-3 16 -13 24 -18 13 -17 14 9 9 19 -3 27 -1 27 10 0 8 -4 13 -10 9 -18 -11
-110 -13 -103 -2 3 5 1 7 -5 4 -5 -4 -30 -8 -54 -8 -41 -2 -78 -21 -78 -42 0
-6 12 0 27 14 14 13 23 18 19 12 -8 -15 10 -18 19 -4 8 14 63 10 76 -5 8 -10
16 -11 30 -4 15 9 17 8 12 -7 -6 -16 -5 -16 10 -4 9 7 17 9 17 3 0 -14 -28
-23 -35 -12 -4 7 -13 6 -25 0 -17 -9 -19 -8 -13 7 6 17 5 17 -13 2 -22 -19
-55 -19 -80 2 -16 12 -17 12 -12 -1 4 -11 -2 -15 -23 -15 -15 -1 -25 3 -22 9
3 5 -3 15 -13 23 -18 13 -17 14 9 9 19 -3 27 -1 27 10 0 8 -4 13 -10 9 -18
-11 -110 -13 -103 -2 3 6 1 7 -5 3 -6 -4 -32 -7 -56 -8 -26 0 -51 -7 -57 -14
-14 -17 2 -18 20 -1 11 10 13 10 7 0 -8 -15 10 -18 19 -4 8 14 63 10 76 -5 8
-10 16 -11 30 -4 15 9 17 8 12 -7 -6 -16 -5 -16 10 -4 9 7 17 9 17 3 0 -14
-28 -23 -35 -12 -4 7 -13 6 -25 0 -17 -9 -19 -8 -13 7 6 17 5 17 -13 2 -22
-19 -55 -19 -80 2 -16 13 -17 12 -10 -5 7 -20 7 -20 -15 0 -17 15 -21 15 -17
3 4 -9 1 -16 -8 -16 -7 0 -10 5 -7 10 3 6 -3 16 -13 24 -18 13 -17 14 9 9 19
-3 27 -1 27 10 0 8 -4 13 -10 9 -18 -11 -110 -13 -103 -2 3 5 1 7 -5 4 -5 -4
-30 -8 -54 -8 -41 -2 -78 -21 -78 -42 0 -6 12 0 27 14 14 13 23 18 19 12 -8
-15 10 -18 19 -4 8 14 63 10 76 -5 8 -10 16 -11 30 -4 15 9 17 8 12 -7 -6 -16
-5 -16 10 -4 9 7 17 9 17 3 0 -14 -28 -23 -35 -12 -4 7 -13 6 -25 0 -17 -9
-19 -8 -13 7 6 17 5 17 -13 2 -22 -19 -55 -19 -80 2 -16 12 -17 12 -12 -1 4
-11 -2 -15 -23 -15 -15 -1 -25 3 -22 9 3 5 -3 15 -13 23 -18 13 -17 14 9 9 19
-3 27 -1 27 10 0 8 -4 13 -10 9 -18 -11 -110 -13 -103 -2 3 6 1 7 -5 3 -6 -4
-32 -7 -56 -8 -26 0 -51 -7 -57 -14 -14 -17 2 -18 20 -1 11 10 13 10 7 0 -8
-15 10 -18 19 -4 8 14 63 10 76 -5 8 -10 16 -11 30 -4 15 9 17 8 12 -7 -6 -16
-5 -16 10 -4 9 7 17 9 17 3 0 -14 -28 -23 -35 -12 -4 7 -13 6 -25 0 -17 -9
-19 -8 -13 7 6 17 5 17 -13 2 -22 -19 -55 -19 -80 2 -16 13 -17 12 -10 -5 7
-20 7 -20 -15 0 -17 15 -21 15 -17 3 4 -9 1 -16 -8 -16 -7 0 -10 5 -7 10 3 6
-3 16 -13 24 -18 13 -17 14 9 9 19 -3 27 -1 27 10 0 8 -4 13 -10 9 -18 -11
-110 -13 -103 -2 3 5 1 7 -5 4 -5 -4 -30 -8 -54 -8 -41 -2 -78 -21 -78 -42 0
-6 12 0 27 14 14 13 23 18 19 12 -8 -15 10 -18 19 -4 8 14 63 10 76 -5 8 -10
16 -11 30 -4 15 9 17 8 12 -7 -6 -16 -5 -16 10 -4 9 7 17 9 17 3 0 -14 -28
-23 -35 -12 -4 7 -13 6 -25 0 -17 -9 -19 -8 -13 7 6 17 5 17 -13 2 -22 -19
-55 -19 -80 2 -16 12 -17 12 -12 -1 4 -11 -2 -15 -23 -15 -15 -1 -25 3 -22 9
3 5 -3 15 -13 23 -18 13 -17 14 9 9 19 -3 27 -1 27 10 0 8 -4 13 -10 9 -18
-11 -110 -13 -103 -2 3 6 1 7 -5 3 -6 -4 -32 -7 -56 -8 -26 0 -51 -7 -57 -14
-14 -17 2 -18 20 -1 11 10 13 10 7 0 -8 -15 10 -18 19 -4 8 14 63 10 76 -5 8
-10 16 -11 30 -4 15 9 17 8 12 -7 -6 -16 -5 -16 10 -4 9 7 17 9 17 3 0 -14
-28 -23 -35 -12 -4 7 -13 6 -25 0 -17 -9 -19 -8 -13 7 6 17 5 17 -13 2 -22
-19 -55 -19 -80 2 -16 13 -17 12 -10 -5 7 -20 7 -20 -15 0 -17 15 -21 15 -17
3 4 -9 1 -16 -8 -16 -7 0 -10 5 -7 10 3 6 -3 16 -13 24 -18 13 -17 14 9 9 19
-3 27 -1 27 10 0 8 -4 13 -10 9 -18 -11 -110 -13 -103 -2 3 5 1 7 -5 4 -5 -4
-30 -8 -54 -8 -41 -2 -78 -21 -78 -42 0 -6 12 0 27 14 14 13 23 18 19 12 -8
-15 10 -18 19 -4 8 14 63 10 76 -5 8 -10 16 -11 30 -4 15 9 17 8 12 -7 -6 -16
-5 -16 10 -4 9 7 17 9 17 3 0 -14 -28 -23 -35 -12 -4 7 -13 6 -25 0 -17 -9
-19 -8 -13 7 6 17 5 17 -13 2 -22 -19 -55 -19 -80 2 -16 12 -17 12 -12 -1 4
-11 -2 -15 -23 -15 -15 -1 -25 3 -22 9 3 5 -3 15 -13 23 -18 13 -17 14 9 9 19
-3 27 -1 27 10 0 8 -4 13 -10 9 -18 -11 -110 -13 -103 -2 3 6 1 7 -5 3 -6 -4
-32 -7 -56 -8 -26 0 -51 -7 -57 -14 -14 -17 2 -18 20 -1 11 10 13 10 7 0 -8
-15 10 -18 19 -4 8 14 63 10 76 -5 8 -10 16 -11 30 -4 15 9 17 8 12 -7 -6 -16
-5 -16 10 -4 9 7 17 9 17 3 0 -14 -28 -23 -35 -12 -4 7 -13 6 -25 0 -17 -9
-19 -8 -13 7 6 17 5 17 -13 2 -22 -19 -55 -19 -80 2 -16 13 -17 12 -10 -5 7
-20 7 -20 -15 0 -17 15 -21 15 -17 3 4 -9 1 -16 -8 -16 -7 0 -10 5 -7 10 3 6
-3 16 -13 24 -18 13 -17 14 9 9 19 -3 27 -1 27 10 0 8 -4 13 -10 9 -18 -11
-110 -13 -103 -2 3 5 1 7 -5 4 -5 -4 -30 -8 -54 -8 -41 -2 -78 -21 -78 -42 0
-6 12 0 27 14 14 13 23 18 19 12 -8 -15 10 -18 19 -4 8 14 63 10 76 -5 8 -10
16 -11 30 -4 15 9 17 8 12 -7 -6 -16 -5 -16 10 -4 9 7 17 9 17 3 0 -14 -28
-23 -35 -12 -4 7 -13 6 -25 0 -17 -9 -19 -8 -13 7 6 17 5 17 -13 2 -22 -19
-55 -19 -80 2 -16 12 -17 12 -12 -1 4 -11 -2 -15 -23 -15 -15 -1 -25 3 -22 9
3 5 -3 15 -13 23 -18 13 -17 14 9 9 19 -3 27 -1 27 10 0 8 -4 13 -10 9 -18
-11 -110 -13 -103 -2 3 6 1 7 -5 3 -6 -4 -32 -7 -56 -8 -26 0 -51 -7 -57 -14
-14 -17 2 -18 20 -1 11 10 13 10 7 0 -8 -15 10 -18 19 -4 8 14 63 10 76 -5 8
-10 16 -11 30 -4 15 9 17 8 12 -7 -6 -16 -5 -16 10 -4 9 7 17 9 17 3 0 -14
-28 -23 -35 -12 -4 7 -13 6 -25 0 -17 -9 -19 -8 -13 7 6 17 5 17 -13 2 -22
-19 -55 -19 -80 2 -16 13 -17 12 -10 -5 7 -20 7 -20 -15 0 -17 15 -21 15 -17
3 4 -9 1 -16 -8 -16 -7 0 -10 5 -7 10 3 6 -3 16 -13 24 -18 13 -17 14 9 9 19
-3 27 -1 27 10 0 8 -4 13 -10 9 -18 -11 -110 -13 -103 -2 3 5 1 7 -5 4 -5 -4
-30 -8 -54 -8 -41 -2 -78 -21 -78 -42 0 -6 12 0 27 14 14 13 23 18 19 12 -8
-15 10 -18 19 -4 8 14 63 10 76 -5 8 -10 16 -11 30 -4 15 9 17 8 12 -7 -6 -16
-5 -16 10 -4 9 7 17 9 17 3 0 -14 -28 -23 -35 -12 -4 7 -13 6 -25 0 -17 -9
-19 -8 -13 7 6 17 5 17 -13 2 -22 -19 -55 -19 -80 2 -16 12 -17 12 -12 -1 4
-11 -2 -15 -23 -15 -15 -1 -25 3 -22 9 3 5 -3 15 -13 23 -18 13 -17 14 9 9 19
-3 27 -1 27 10 0 8 -4 13 -10 9 -18 -11 -110 -13 -103 -2 3 6 1 7 -5 3 -6 -4
-32 -7 -56 -8 -26 0 -51 -7 -57 -14 -14 -17 2 -18 20 -1 11 10 13 10 7 0 -8
-15 10 -18 19 -4 8 14 63 10 76 -5 8 -10 16 -11 30 -4 15 9 17 8 12 -7 -6 -16
-5 -16 10 -4 9 7 17 9 17 3 0 -14 -28 -23 -35 -12 -4 7 -13 6 -25 0 -17 -9
-19 -8 -13 7 6 17 5 17 -13 2 -22 -19 -55 -19 -80 2 -16 13 -17 12 -10 -5 7
-20 7 -20 -15 0 -17 15 -21 15 -17 3 4 -9 1 -16 -8 -16 -7 0 -10 5 -7 10 3 6
-3 16 -13 24 -18 13 -17 14 9 9 19 -3 27 -1 27 10 0 8 -4 13 -10 9 -18 -11
-110 -13 -103 -2 3 5 1 7 -5 4 -5 -4 -30 -8 -54 -8 -41 -2 -78 -21 -78 -42 0
-6 12 0 27 14 14 13 23 18 19 12 -8 -15 10 -18 19 -4 8 14 63 10 76 -5 8 -10
16 -11 30 -4 15 9 17 8 12 -7 -6 -16 -5 -16 10 -4 9 7 17 9 17 3 0 -14 -28
-23 -35 -12 -4 7 -13 6 -25 0 -17 -9 -19 -8 -13 7 6 17 5 17 -13 2 -22 -19
-55 -19 -80 2 -16 12 -17 12 -12 -1 4 -11 -2 -15 -23 -15 -15 -1 -25 3 -22 9
3 5 -3 15 -13 23 -18 13 -17 14 9 9 19 -3 27 -1 27 10 0 8 -4 13 -10 9 -18
-11 -110 -13 -103 -2 3 6 1 7 -5 3 -6 -4 -32 -7 -56 -8 -26 0 -51 -7 -57 -14
-14 -17 2 -18 20 -1 11 10 13 10 7 0 -8 -15 10 -18 19 -4 8 14 63 10 76 -5 8
-10 16 -11 30 -4 15 9 17 8 12 -7 -6 -16 -5 -16 10 -4 9 7 17 9 17 3 0 -14
-28 -23 -35 -12 -4 7 -13 6 -25 0 -17 -9 -19 -8 -13 7 6 17 5 17 -13 2 -22
-19 -55 -19 -80 2 -16 13 -17 12 -10 -5 7 -20 7 -20 -15 0 -17 15 -21 15 -17
3 4 -9 1 -16 -8 -16 -7 0 -10 5 -7 10 3 6 -3 16 -13 24 -18 13 -17 14 9 9 19
-3 27 -1 27 10 0 8 -4 13 -10 9 -18 -11 -110 -13 -103 -2 3 5 1 7 -5 4 -5 -4
-30 -8 -54 -8 -41 -2 -78 -21 -78 -42 0 -6 12 0 27 14 14 13 23 18 19 12 -8
-15 10 -18 19 -4 8 14 63 10 76 -5 8 -10 16 -11 30 -4 15 9 17 8 12 -7 -6 -16
-5 -16 10 -4 9 7 17 9 17 3 0 -14 -28 -23 -35 -12 -4 7 -13 6 -25 0 -17 -9
-19 -8 -13 7 6 17 5 17 -13 2 -22 -19 -55 -19 -80 2 -16 12 -17 12 -12 -1 4
-11 -2 -15 -23 -15 -15 -1 -25 3 -22 9 3 5 -3 15 -13 23 -18 13 -17 14 9 9 19
-3 27 -1 27 10 0 8 -4 13 -10 9 -18 -11 -110 -13 -103 -2 3 6 1 7 -5 3 -6 -4
-32 -7 -56 -8 -26 0 -51 -7 -57 -14 -14 -17 2 -18 20 -1 11 10 13 10 7 0 -8
-15 10 -18 19 -4 8 14 63 10 76 -5 8 -10 16 -11 30 -4 15 9 17 8 12 -7 -6 -16
-5 -16 10 -4 9 7 17 9 17 3 0 -14 -28 -23 -35 -12 -4 7 -13 6 -25 0 -17 -9
-19 -8 -13 7 6 17 5 17 -13 2 -22 -19 -55 -19 -80 2 -16 13 -17 12 -10 -5 7
-20 7 -20 -15 0 -20 17 -22 17 -16 2 4 -11 2 -17 -6 -15 -7 1 -11 -4 -10 -10
2 -7 -2 -13 -7 -13 -13 0 -13 13 1 27 6 6 8 16 5 22 -10 16 -26 13 -20 -3 3
-8 1 -17 -5 -21 -7 -4 -10 2 -8 14 4 29 14 36 32 21 12 -10 16 -9 21 4 4 9 4
20 0 23 -3 4 -6 2 -6 -4z m6890 -23 c0 -5 -2 -10 -4 -10 -3 0 -8 5 -11 10 -3
6 -1 10 4 10 6 0 11 -4 11 -10z m-3 -179 c1 -11 -5 -22 -13 -25 -8 -3 -14 -10
-14 -15 0 -6 6 -8 14 -5 16 6 31 -12 17 -21 -6 -3 -8 -12 -5 -19 6 -15 -23
-42 -33 -32 -11 11 -12 40 -2 52 7 8 6 15 -1 19 -8 5 -5 12 9 21 11 8 18 21
15 29 -4 8 -2 15 3 15 5 0 9 -9 10 -19z m-6900 -101 c-1 -11 -5 -20 -9 -20 -3
0 -6 9 -5 20 1 11 5 20 9 20 3 0 6 -9 5 -20z m0 -240 c-1 -11 -5 -20 -9 -20
-3 0 -6 9 -5 20 1 11 5 20 9 20 3 0 6 -9 5 -20z m6892 -162 c-11 -20 -25 -23
-34 -8 -9 15 3 29 24 27 16 -1 17 -5 10 -19z m6 -39 c4 -5 -2 -6 -12 -2 -16 6
-17 5 -3 -12 8 -10 15 -33 16 -51 1 -28 -2 -32 -16 -24 -10 5 -19 7 -22 5 -3
-3 -5 2 -5 9 0 11 5 13 19 5 12 -7 18 -6 18 1 0 6 -7 13 -15 16 -10 4 -13 13
-9 26 3 12 2 18 -3 15 -5 -4 -10 0 -10 6 0 15 34 20 42 6z m-6898 -39 c-1 -11
-5 -20 -9 -20 -3 0 -6 9 -5 20 1 11 5 20 9 20 3 0 6 -9 5 -20z m6889 -189
c-19 -7 -31 -51 -14 -51 7 0 12 15 9 33 0 4 3 7 8 7 5 0 9 -11 9 -25 0 -14 -3
-24 -6 -21 -2 3 -12 1 -22 -4 -14 -7 -16 -4 -15 18 2 36 12 52 33 51 14 0 14
-2 -2 -8z m-6889 -51 c-1 -11 -5 -20 -9 -20 -3 0 -6 9 -5 20 1 11 5 20 9 20 3
0 6 -9 5 -20z m6892 -162 c-11 -20 -25 -23 -34 -8 -9 15 3 29 24 27 16 -1 17
-5 10 -19z m6 -39 c4 -5 -2 -6 -12 -2 -16 6 -17 5 -3 -12 8 -10 15 -33 16 -51
1 -28 -2 -32 -16 -24 -10 5 -19 7 -22 5 -3 -3 -5 2 -5 9 0 11 5 13 19 5 12 -7
18 -6 18 1 0 6 -7 13 -15 16 -10 4 -13 13 -9 26 3 12 2 18 -3 15 -5 -4 -10 0
-10 6 0 15 34 20 42 6z m-6898 -39 c-1 -11 -5 -20 -9 -20 -3 0 -6 9 -5 20 1
11 5 20 9 20 3 0 6 -9 5 -20z m6889 -189 c-19 -7 -31 -51 -14 -51 7 0 12 15 9
33 0 4 3 7 8 7 5 0 9 -11 9 -25 0 -14 -3 -24 -6 -21 -2 3 -12 1 -22 -4 -14 -7
-16 -4 -15 18 2 36 12 52 33 51 14 0 14 -2 -2 -8z m-6889 -51 c-1 -11 -5 -20
-9 -20 -3 0 -6 9 -5 20 1 11 5 20 9 20 3 0 6 -9 5 -20z m6892 -162 c-11 -20
-25 -23 -34 -8 -9 15 3 29 24 27 16 -1 17 -5 10 -19z m6 -39 c4 -5 -2 -6 -12
-2 -16 6 -17 5 -3 -12 8 -10 15 -33 16 -51 1 -28 -2 -32 -16 -24 -10 5 -19 7
-22 5 -3 -3 -5 2 -5 9 0 11 5 13 19 5 12 -7 18 -6 18 1 0 6 -7 13 -15 16 -10
4 -13 13 -9 26 3 12 2 18 -3 15 -5 -4 -10 0 -10 6 0 15 34 20 42 6z m-6898
-39 c-1 -11 -5 -20 -9 -20 -3 0 -6 9 -5 20 1 11 5 20 9 20 3 0 6 -9 5 -20z
m6899 -81 c12 -13 14 -19 5 -17 -7 2 -16 -3 -19 -11 -2 -8 0 -11 6 -7 5 3 13
-1 16 -9 4 -12 2 -13 -13 -6 -31 17 -40 35 -32 66 2 11 19 4 37 -16z m-8 -87
c-16 -19 -33 -9 -33 20 -1 25 0 25 21 9 16 -12 19 -19 12 -29z m-6891 -72 c-1
-11 -5 -20 -9 -20 -3 0 -6 9 -5 20 1 11 5 20 9 20 3 0 6 -9 5 -20z m0 -240
c-1 -11 -5 -20 -9 -20 -3 0 -6 9 -5 20 1 11 5 20 9 20 3 0 6 -9 5 -20z m0
-240 c-1 -11 -5 -20 -9 -20 -3 0 -6 9 -5 20 1 11 5 20 9 20 3 0 6 -9 5 -20z
m0 -240 c-1 -11 -5 -20 -9 -20 -3 0 -6 9 -5 20 1 11 5 20 9 20 3 0 6 -9 5 -20z
m0 -240 c-1 -11 -5 -20 -9 -20 -3 0 -6 9 -5 20 1 11 5 20 9 20 3 0 6 -9 5 -20z
m0 -240 c-1 -11 -5 -20 -9 -20 -3 0 -6 9 -5 20 1 11 5 20 9 20 3 0 6 -9 5 -20z
m6892 -82 c-11 -20 -25 -23 -34 -8 -9 15 3 29 24 27 16 -1 17 -5 10 -19z m6
-39 c4 -5 -2 -6 -12 -2 -16 6 -17 5 -3 -12 8 -10 15 -33 16 -51 1 -28 -2 -32
-16 -24 -10 5 -19 7 -22 5 -3 -3 -5 2 -5 9 0 11 5 13 19 5 12 -7 18 -6 18 1 0
6 -7 13 -15 16 -10 4 -13 13 -9 26 3 12 2 18 -3 15 -5 -4 -10 0 -10 6 0 15 34
20 42 6z m-6898 -119 c-1 -11 -5 -20 -9 -20 -3 0 -6 9 -5 20 1 11 5 20 9 20 3
0 6 -9 5 -20z m6889 -109 c-19 -7 -31 -51 -14 -51 7 0 12 15 9 33 0 4 3 7 8 7
5 0 9 -11 9 -25 0 -14 -3 -24 -6 -21 -2 3 -12 1 -22 -4 -14 -7 -16 -4 -15 18
2 36 12 52 33 51 14 0 14 -2 -2 -8z m-6889 -131 c-1 -11 -5 -20 -9 -20 -3 0
-6 9 -5 20 1 11 5 20 9 20 3 0 6 -9 5 -20z m6892 -82 c-11 -20 -25 -23 -34 -8
-9 15 3 29 24 27 16 -1 17 -5 10 -19z m6 -39 c4 -5 -2 -6 -12 -2 -16 6 -17 5
-3 -12 8 -10 15 -33 16 -51 1 -28 -2 -32 -16 -24 -10 5 -19 7 -22 5 -3 -3 -5
2 -5 9 0 11 5 13 19 5 12 -7 18 -6 18 1 0 6 -7 13 -15 16 -10 4 -13 13 -9 26
3 12 2 18 -3 15 -5 -4 -10 0 -10 6 0 15 34 20 42 6z m-6898 -119 c-1 -11 -5
-20 -9 -20 -3 0 -6 9 -5 20 1 11 5 20 9 20 3 0 6 -9 5 -20z m6889 -109 c-19
-7 -31 -51 -14 -51 7 0 12 15 9 33 0 4 3 7 8 7 5 0 9 -11 9 -25 0 -14 -3 -24
-6 -21 -2 3 -12 1 -22 -4 -14 -7 -16 -4 -15 18 2 36 12 52 33 51 14 0 14 -2
-2 -8z m-6889 -131 c-1 -11 -5 -20 -9 -20 -3 0 -6 9 -5 20 1 11 5 20 9 20 3 0
6 -9 5 -20z m6892 -82 c-11 -20 -25 -23 -34 -8 -9 15 3 29 24 27 16 -1 17 -5
10 -19z m6 -39 c4 -5 -2 -6 -12 -2 -16 6 -17 5 -3 -12 8 -10 15 -33 16 -51 1
-28 -2 -32 -16 -24 -10 5 -19 7 -22 5 -3 -3 -5 2 -5 9 0 11 5 13 19 5 12 -7
18 -6 18 1 0 6 -7 13 -15 16 -10 4 -13 13 -9 26 3 12 2 18 -3 15 -5 -4 -10 0
-10 6 0 15 34 20 42 6z m-6898 -119 c-1 -11 -5 -20 -9 -20 -3 0 -6 9 -5 20 1
11 5 20 9 20 3 0 6 -9 5 -20z m6898 -63 c4 5 2 -2 -4 -15 -16 -30 -36 -23 -36
11 -1 24 1 25 15 12 9 -8 20 -12 25 -8z m-6898 -177 c-1 -11 -5 -20 -9 -20 -3
0 -6 9 -5 20 1 11 5 20 9 20 3 0 6 -9 5 -20z m0 -240 c-1 -11 -5 -20 -9 -20
-3 0 -6 9 -5 20 1 11 5 20 9 20 3 0 6 -9 5 -20z m0 -240 c-1 -11 -5 -20 -9
-20 -3 0 -6 9 -5 20 1 11 5 20 9 20 3 0 6 -9 5 -20z m6892 -82 c-11 -20 -25
-23 -34 -8 -9 15 3 29 24 27 16 -1 17 -5 10 -19z m6 -39 c4 -5 -2 -6 -12 -2
-16 6 -17 5 -3 -12 8 -10 15 -33 16 -51 1 -28 -2 -32 -16 -24 -10 5 -19 7 -22
5 -3 -3 -5 2 -5 9 0 11 5 13 19 5 12 -7 18 -6 18 1 0 6 -7 13 -15 16 -10 4
-13 13 -9 26 3 12 2 18 -3 15 -5 -4 -10 0 -10 6 0 15 34 20 42 6z m-6898 -119
c-1 -11 -5 -20 -9 -20 -3 0 -6 9 -5 20 1 11 5 20 9 20 3 0 6 -9 5 -20z m6889
-109 c-19 -7 -31 -51 -14 -51 7 0 12 15 9 33 0 4 3 7 8 7 5 0 9 -11 9 -25 0
-14 -3 -24 -6 -21 -2 3 -12 1 -22 -4 -14 -7 -16 -4 -15 18 2 36 12 52 33 51
14 0 14 -2 -2 -8z m-6889 -131 c-1 -11 -5 -20 -9 -20 -3 0 -6 9 -5 20 1 11 5
20 9 20 3 0 6 -9 5 -20z m6892 -82 c-11 -20 -25 -23 -34 -8 -9 15 3 29 24 27
16 -1 17 -5 10 -19z m6 -39 c4 -5 -2 -6 -12 -2 -16 6 -17 5 -3 -12 8 -10 15
-33 16 -51 1 -28 -2 -32 -16 -24 -10 5 -19 7 -22 5 -3 -3 -5 2 -5 9 0 11 5 13
19 5 12 -7 18 -6 18 1 0 6 -7 13 -15 16 -10 4 -13 13 -9 26 3 12 2 18 -3 15
-5 -4 -10 0 -10 6 0 15 34 20 42 6z m-6898 -119 c-1 -11 -5 -20 -9 -20 -3 0
-6 9 -5 20 1 11 5 20 9 20 3 0 6 -9 5 -20z m6889 -109 c-19 -7 -31 -51 -14
-51 7 0 12 15 9 33 0 4 3 7 8 7 5 0 9 -11 9 -25 0 -14 -3 -24 -6 -21 -2 3 -12
1 -22 -4 -14 -7 -16 -4 -15 18 2 36 12 52 33 51 14 0 14 -2 -2 -8z m-6889
-131 c-1 -11 -5 -20 -9 -20 -3 0 -6 9 -5 20 1 11 5 20 9 20 3 0 6 -9 5 -20z
m6892 -82 c-11 -20 -25 -23 -34 -8 -9 15 3 29 24 27 16 -1 17 -5 10 -19z m6
-39 c4 -5 -2 -6 -12 -2 -16 6 -17 5 -3 -12 8 -10 15 -33 16 -51 1 -28 -2 -32
-16 -24 -10 5 -19 7 -22 5 -3 -3 -5 2 -5 9 0 11 5 13 19 5 12 -7 18 -6 18 1 0
6 -7 13 -15 16 -10 4 -13 13 -9 26 3 12 2 18 -3 15 -5 -4 -10 0 -10 6 0 15 34
20 42 6z m-6898 -119 c-1 -11 -5 -20 -9 -20 -3 0 -6 9 -5 20 1 11 5 20 9 20 3
0 6 -9 5 -20z m6899 -1 c12 -13 14 -19 5 -17 -7 2 -16 -3 -19 -11 -2 -8 0 -11
6 -7 5 3 13 -1 16 -9 4 -12 2 -13 -13 -6 -31 17 -40 35 -32 66 2 11 19 4 37
-16z m-7 -161 c-11 -20 -25 -23 -34 -8 -9 15 3 29 24 27 16 -1 17 -5 10 -19z
m6 -39 c4 -5 -2 -6 -12 -2 -16 6 -17 5 -3 -12 8 -10 15 -33 16 -51 1 -28 -2
-32 -16 -24 -10 5 -19 7 -22 5 -3 -3 -5 2 -5 9 0 11 5 13 19 5 12 -7 18 -6 18
1 0 6 -7 13 -15 16 -10 4 -13 13 -9 26 3 12 2 18 -3 15 -5 -4 -10 0 -10 6 0
15 34 20 42 6z m-6898 -39 c-1 -11 -5 -20 -9 -20 -3 0 -6 9 -5 20 1 11 5 20 9
20 3 0 6 -9 5 -20z m6889 -189 c-19 -7 -31 -51 -14 -51 7 0 12 15 9 33 0 4 3
7 8 7 5 0 9 -11 9 -25 0 -14 -3 -24 -6 -21 -2 3 -12 1 -22 -4 -14 -7 -16 -4
-15 18 2 36 12 52 33 51 14 0 14 -2 -2 -8z m-6889 -51 c-1 -11 -5 -20 -9 -20
-3 0 -6 9 -5 20 1 11 5 20 9 20 3 0 6 -9 5 -20z m143 -130 c0 -5 -5 -10 -11
-10 -5 0 -7 5 -4 10 3 6 8 10 11 10 2 0 4 -4 4 -10z m240 0 c0 -5 -5 -10 -11
-10 -5 0 -7 5 -4 10 3 6 8 10 11 10 2 0 4 -4 4 -10z m92 -4 c3 2 6 -7 6 -21 0
-14 -5 -25 -11 -25 -6 0 -7 3 -4 7 4 3 0 18 -10 32 -13 20 -13 23 -1 14 8 -7
17 -10 20 -7z m137 -34 c-1 -16 -2 -16 -6 0 -2 9 -13 16 -24 15 -11 -1 -18 -6
-15 -12 2 -6 -8 -11 -23 -10 -16 0 -25 6 -23 14 2 8 -3 11 -11 8 -7 -3 -14 1
-14 8 0 10 5 11 18 5 12 -7 21 -5 29 5 10 13 16 13 41 -1 16 -8 28 -22 28 -32z
m23 34 c3 2 6 -7 6 -21 0 -14 -5 -25 -11 -25 -6 0 -7 3 -4 7 4 3 0 18 -10 32
-13 20 -13 23 -1 14 8 -7 17 -10 20 -7z m148 4 c0 -5 -5 -10 -11 -10 -5 0 -7
5 -4 10 3 6 8 10 11 10 2 0 4 -4 4 -10z m240 0 c0 -5 -5 -10 -11 -10 -5 0 -7
5 -4 10 3 6 8 10 11 10 2 0 4 -4 4 -10z m92 -4 c3 2 6 -7 6 -21 0 -14 -5 -25
-11 -25 -6 0 -7 3 -4 7 4 3 0 18 -10 32 -13 20 -13 23 -1 14 8 -7 17 -10 20
-7z m788 4 c0 -5 -5 -10 -11 -10 -5 0 -7 5 -4 10 3 6 8 10 11 10 2 0 4 -4 4
-10z m240 0 c0 -5 -5 -10 -11 -10 -5 0 -7 5 -4 10 3 6 8 10 11 10 2 0 4 -4 4
-10z m92 -4 c3 2 6 -7 6 -21 0 -14 -5 -25 -11 -25 -6 0 -7 3 -4 7 4 3 0 18
-10 32 -13 20 -13 23 -1 14 8 -7 17 -10 20 -7z m148 4 c0 -5 -5 -10 -11 -10
-5 0 -7 5 -4 10 3 6 8 10 11 10 2 0 4 -4 4 -10z m240 0 c0 -5 -5 -10 -11 -10
-5 0 -7 5 -4 10 3 6 8 10 11 10 2 0 4 -4 4 -10z m92 -4 c3 2 6 -7 6 -21 0 -14
-5 -25 -11 -25 -6 0 -7 3 -4 7 4 3 0 18 -10 32 -13 20 -13 23 -1 14 8 -7 17
-10 20 -7z m148 4 c0 -5 -5 -10 -11 -10 -5 0 -7 5 -4 10 3 6 8 10 11 10 2 0 4
-4 4 -10z m240 0 c0 -5 -5 -10 -11 -10 -5 0 -7 5 -4 10 3 6 8 10 11 10 2 0 4
-4 4 -10z m732 -4 c3 2 6 -7 6 -21 0 -14 -5 -25 -11 -25 -6 0 -7 3 -4 7 4 3 0
18 -10 32 -13 20 -13 23 -1 14 8 -7 17 -10 20 -7z m148 4 c0 -5 -5 -10 -11
-10 -5 0 -7 5 -4 10 3 6 8 10 11 10 2 0 4 -4 4 -10z m240 0 c0 -5 -5 -10 -11
-10 -5 0 -7 5 -4 10 3 6 8 10 11 10 2 0 4 -4 4 -10z m92 -4 c3 2 6 -7 6 -21 0
-14 -5 -25 -11 -25 -6 0 -7 3 -4 7 4 3 0 18 -10 32 -13 20 -13 23 -1 14 8 -7
17 -10 20 -7z m137 -34 c-1 -16 -2 -16 -6 0 -2 9 -13 16 -24 15 -11 -1 -18 -6
-15 -12 2 -6 -8 -11 -23 -10 -16 0 -25 6 -23 14 2 8 -3 11 -11 8 -7 -3 -14 1
-14 8 0 10 5 11 18 5 12 -7 21 -5 29 5 10 13 16 13 41 -1 16 -8 28 -22 28 -32z
m23 34 c3 2 6 -7 6 -21 0 -14 -5 -25 -11 -25 -6 0 -7 3 -4 7 4 3 0 18 -10 32
-13 20 -13 23 -1 14 8 -7 17 -10 20 -7z m148 4 c0 -5 -5 -10 -11 -10 -5 0 -7
5 -4 10 3 6 8 10 11 10 2 0 4 -4 4 -10z m240 0 c0 -5 -5 -10 -11 -10 -5 0 -7
5 -4 10 3 6 8 10 11 10 2 0 4 -4 4 -10z m92 -4 c3 2 6 -7 6 -21 0 -14 -5 -25
-11 -25 -6 0 -7 3 -4 7 4 3 0 18 -10 32 -13 20 -13 23 -1 14 8 -7 17 -10 20
-7z m160 0 c3 2 6 -7 6 -21 0 -14 -5 -25 -11 -25 -6 0 -7 3 -4 7 4 3 0 18 -10
32 -13 20 -13 23 -1 14 8 -7 17 -10 20 -7z m148 4 c0 -5 -5 -10 -11 -10 -5 0
-7 5 -4 10 3 6 8 10 11 10 2 0 4 -4 4 -10z m240 0 c0 -5 -5 -10 -11 -10 -5 0
-7 5 -4 10 3 6 8 10 11 10 2 0 4 -4 4 -10z m92 -4 c3 2 6 -7 6 -21 0 -14 -5
-25 -11 -25 -6 0 -7 3 -4 7 4 3 0 18 -10 32 -13 20 -13 23 -1 14 8 -7 17 -10
20 -7z m137 -34 c-1 -16 -2 -16 -6 0 -2 9 -13 16 -24 15 -11 -1 -18 -6 -15
-12 2 -6 -8 -11 -23 -10 -16 0 -25 6 -23 14 2 8 -3 11 -11 8 -7 -3 -14 1 -14
8 0 10 5 11 18 5 12 -7 21 -5 29 5 10 13 16 13 41 -1 16 -8 28 -22 28 -32z
m23 34 c3 2 6 -7 6 -21 0 -14 -5 -25 -11 -25 -6 0 -7 3 -4 7 4 3 0 18 -10 32
-13 20 -13 23 -1 14 8 -7 17 -10 20 -7z m148 4 c0 -5 -5 -10 -11 -10 -5 0 -7
5 -4 10 3 6 8 10 11 10 2 0 4 -4 4 -10z m240 0 c0 -5 -5 -10 -11 -10 -5 0 -7
5 -4 10 3 6 8 10 11 10 2 0 4 -4 4 -10z m92 -4 c3 2 6 -7 6 -21 0 -14 -5 -25
-11 -25 -6 0 -7 3 -4 7 4 3 0 18 -10 32 -13 20 -13 23 -1 14 8 -7 17 -10 20
-7z m-5821 -16 c6 0 7 5 3 11 -4 8 0 8 15 0 11 -7 20 -19 20 -29 -1 -16 -2
-16 -6 1 -5 19 -19 22 -29 6 -7 -12 -24 7 -23 26 0 6 3 4 6 -2 2 -7 9 -13 14
-13z m640 0 c6 0 7 5 3 11 -4 8 0 8 15 0 11 -7 20 -19 20 -29 -1 -16 -2 -16
-6 1 -5 19 -19 22 -29 6 -7 -12 -24 7 -23 26 0 6 3 4 6 -2 2 -7 9 -13 14 -13z
m1120 0 c6 0 7 5 3 11 -4 8 0 8 15 0 11 -7 20 -19 20 -29 -1 -16 -2 -16 -6 1
-5 19 -19 22 -29 6 -7 -12 -24 7 -23 26 0 6 3 4 6 -2 2 -7 9 -13 14 -13z m480
0 c6 0 7 5 3 11 -4 8 0 8 15 0 11 -7 20 -19 20 -29 -1 -16 -2 -16 -6 1 -5 19
-19 22 -29 6 -7 -12 -24 7 -23 26 0 6 3 4 6 -2 2 -7 9 -13 14 -13z m1600 0 c6
0 7 5 3 11 -4 8 0 8 15 0 11 -7 20 -19 20 -29 -1 -16 -2 -16 -6 1 -5 19 -19
22 -29 6 -7 -12 -24 7 -23 26 0 6 3 4 6 -2 2 -7 9 -13 14 -13z m640 0 c6 0 7
5 3 11 -4 8 0 8 15 0 11 -7 20 -19 20 -29 -1 -16 -2 -16 -6 1 -5 19 -19 22
-29 6 -7 -12 -24 7 -23 26 0 6 3 4 6 -2 2 -7 9 -13 14 -13z m640 0 c6 0 7 5 3
11 -4 8 0 8 15 0 11 -7 20 -19 20 -29 -1 -16 -2 -16 -6 1 -5 19 -19 22 -29 6
-7 -12 -24 7 -23 26 0 6 3 4 6 -2 2 -7 9 -13 14 -13z m640 0 c6 0 7 5 3 11 -4
8 0 8 15 0 11 -7 20 -19 20 -29 -1 -16 -2 -16 -6 1 -5 19 -19 22 -29 6 -7 -12
-24 7 -23 26 0 6 3 4 6 -2 2 -7 9 -13 14 -13z m713 4 c9 -3 16 -11 16 -17 0
-7 -4 -7 -12 1 -17 17 -33 15 -18 -3 9 -10 9 -15 1 -15 -6 0 -11 5 -11 11 0 5
-6 7 -12 3 -9 -5 -9 -2 1 9 15 19 14 19 35 11z"/>
<path d="M6943 6718 c-14 -17 -12 -50 1 -45 6 3 10 10 8 17 -1 7 3 18 9 26 7
8 7 14 1 14 -5 0 -14 -6 -19 -12z"/>
<path d="M6930 6280 c0 -5 5 -10 10 -10 6 0 10 5 10 10 0 6 -4 10 -10 10 -5 0
-10 -4 -10 -10z"/>
<path d="M6945 6200 c3 -5 8 -10 11 -10 2 0 4 5 4 10 0 6 -5 10 -11 10 -5 0
-7 -4 -4 -10z"/>
<path d="M6930 5800 c0 -5 5 -10 10 -10 6 0 10 5 10 10 0 6 -4 10 -10 10 -5 0
-10 -4 -10 -10z"/>
<path d="M6945 5720 c3 -5 8 -10 11 -10 2 0 4 5 4 10 0 6 -5 10 -11 10 -5 0
-7 -4 -4 -10z"/>
<path d="M6930 5320 c0 -5 5 -10 10 -10 6 0 10 5 10 10 0 6 -4 10 -10 10 -5 0
-10 -4 -10 -10z"/>
<path d="M6945 5240 c3 -5 8 -10 11 -10 2 0 4 5 4 10 0 6 -5 10 -11 10 -5 0
-7 -4 -4 -10z"/>
<path d="M6933 5155 c0 -9 4 -14 9 -13 5 2 10 8 10 13 0 5 -5 11 -10 13 -5 1
-9 -4 -9 -13z"/>
<path d="M6930 5080 c0 -5 5 -10 10 -10 6 0 10 5 10 10 0 6 -4 10 -10 10 -5 0
-10 -4 -10 -10z"/>
<path d="M6930 3720 c0 -5 5 -10 10 -10 6 0 10 5 10 10 0 6 -4 10 -10 10 -5 0
-10 -4 -10 -10z"/>
<path d="M6945 3640 c3 -5 8 -10 11 -10 2 0 4 5 4 10 0 6 -5 10 -11 10 -5 0
-7 -4 -4 -10z"/>
<path d="M6930 3240 c0 -5 5 -10 10 -10 6 0 10 5 10 10 0 6 -4 10 -10 10 -5 0
-10 -4 -10 -10z"/>
<path d="M6945 3160 c3 -5 8 -10 11 -10 2 0 4 5 4 10 0 6 -5 10 -11 10 -5 0
-7 -4 -4 -10z"/>
<path d="M6930 2760 c0 -5 5 -10 10 -10 6 0 10 5 10 10 0 6 -4 10 -10 10 -5 0
-10 -4 -10 -10z"/>
<path d="M6945 2680 c3 -5 8 -10 11 -10 2 0 4 5 4 10 0 6 -5 10 -11 10 -5 0
-7 -4 -4 -10z"/>
<path d="M6930 2520 c0 -5 5 -10 10 -10 6 0 10 5 10 10 0 6 -4 10 -10 10 -5 0
-10 -4 -10 -10z"/>
<path d="M6930 1800 c0 -5 5 -10 10 -10 6 0 10 5 10 10 0 6 -4 10 -10 10 -5 0
-10 -4 -10 -10z"/>
<path d="M6945 1720 c3 -5 8 -10 11 -10 2 0 4 5 4 10 0 6 -5 10 -11 10 -5 0
-7 -4 -4 -10z"/>
<path d="M6930 1320 c0 -5 5 -10 10 -10 6 0 10 5 10 10 0 6 -4 10 -10 10 -5 0
-10 -4 -10 -10z"/>
<path d="M6945 1240 c3 -5 8 -10 11 -10 2 0 4 5 4 10 0 6 -5 10 -11 10 -5 0
-7 -4 -4 -10z"/>
<path d="M6930 840 c0 -5 5 -10 10 -10 6 0 10 5 10 10 0 6 -4 10 -10 10 -5 0
-10 -4 -10 -10z"/>
<path d="M6945 760 c3 -5 8 -10 11 -10 2 0 4 5 4 10 0 6 -5 10 -11 10 -5 0 -7
-4 -4 -10z"/>
<path d="M6933 675 c0 -9 4 -14 9 -13 5 2 10 8 10 13 0 5 -5 11 -10 13 -5 1
-9 -4 -9 -13z"/>
<path d="M6930 520 c0 -5 5 -10 10 -10 6 0 10 5 10 10 0 6 -4 10 -10 10 -5 0
-10 -4 -10 -10z"/>
<path d="M6945 440 c3 -5 8 -10 11 -10 2 0 4 5 4 10 0 6 -5 10 -11 10 -5 0 -7
-4 -4 -10z"/>
<path d="M605 50 c-10 -11 -13 -20 -8 -20 13 0 38 29 31 35 -3 3 -13 -4 -23
-15z"/>
<path d="M4445 50 c-10 -11 -13 -20 -8 -20 13 0 38 29 31 35 -3 3 -13 -4 -23
-15z"/>
<path d="M5725 50 c-10 -11 -13 -20 -8 -20 13 0 38 29 31 35 -3 3 -13 -4 -23
-15z"/>
<path d="M145 6952 c-11 -11 -4 -18 20 -17 37 0 53 22 15 22 -16 0 -32 -3 -35
-5z"/>
<path d="M385 6952 c-11 -11 -4 -18 20 -17 37 0 53 22 15 22 -16 0 -32 -3 -35
-5z"/>
<path d="M625 6952 c-11 -11 -4 -18 20 -17 37 0 53 22 15 22 -16 0 -32 -3 -35
-5z"/>
<path d="M865 6952 c-11 -11 -4 -18 20 -17 37 0 53 22 15 22 -16 0 -32 -3 -35
-5z"/>
<path d="M1105 6952 c-11 -11 -4 -18 20 -17 37 0 53 22 15 22 -16 0 -32 -3
-35 -5z"/>
<path d="M1345 6952 c-11 -11 -4 -18 20 -17 37 0 53 22 15 22 -16 0 -32 -3
-35 -5z"/>
<path d="M1585 6952 c-11 -11 -4 -18 20 -17 37 0 53 22 15 22 -16 0 -32 -3
-35 -5z"/>
<path d="M1825 6952 c-11 -11 -4 -18 20 -17 37 0 53 22 15 22 -16 0 -32 -3
-35 -5z"/>
<path d="M2065 6952 c-11 -11 -4 -18 20 -17 37 0 53 22 15 22 -16 0 -32 -3
-35 -5z"/>
<path d="M2305 6952 c-11 -11 -4 -18 20 -17 37 0 53 22 15 22 -16 0 -32 -3
-35 -5z"/>
<path d="M2545 6952 c-11 -11 -4 -18 20 -17 37 0 53 22 15 22 -16 0 -32 -3
-35 -5z"/>
<path d="M2785 6952 c-11 -11 -4 -18 20 -17 37 0 53 22 15 22 -16 0 -32 -3
-35 -5z"/>
<path d="M3025 6952 c-11 -11 -4 -18 20 -17 37 0 53 22 15 22 -16 0 -32 -3
-35 -5z"/>
<path d="M3265 6952 c-11 -11 -4 -18 20 -17 37 0 53 22 15 22 -16 0 -32 -3
-35 -5z"/>
<path d="M3505 6952 c-11 -11 -4 -18 20 -17 37 0 53 22 15 22 -16 0 -32 -3
-35 -5z"/>
<path d="M3745 6952 c-11 -11 -4 -18 20 -17 37 0 53 22 15 22 -16 0 -32 -3
-35 -5z"/>
<path d="M3985 6952 c-11 -11 -4 -18 20 -17 37 0 53 22 15 22 -16 0 -32 -3
-35 -5z"/>
<path d="M4225 6952 c-11 -11 -4 -18 20 -17 37 0 53 22 15 22 -16 0 -32 -3
-35 -5z"/>
<path d="M4465 6952 c-11 -11 -4 -18 20 -17 37 0 53 22 15 22 -16 0 -32 -3
-35 -5z"/>
<path d="M4705 6952 c-11 -11 -4 -18 20 -17 37 0 53 22 15 22 -16 0 -32 -3
-35 -5z"/>
<path d="M4945 6952 c-11 -11 -4 -18 20 -17 37 0 53 22 15 22 -16 0 -32 -3
-35 -5z"/>
<path d="M5185 6952 c-11 -11 -4 -18 20 -17 37 0 53 22 15 22 -16 0 -32 -3
-35 -5z"/>
<path d="M5425 6952 c-11 -11 -4 -18 20 -17 37 0 53 22 15 22 -16 0 -32 -3
-35 -5z"/>
<path d="M5665 6952 c-11 -11 -4 -18 20 -17 37 0 53 22 15 22 -16 0 -32 -3
-35 -5z"/>
<path d="M5905 6952 c-11 -11 -4 -18 20 -17 37 0 53 22 15 22 -16 0 -32 -3
-35 -5z"/>
<path d="M6145 6952 c-11 -11 -4 -18 20 -17 37 0 53 22 15 22 -16 0 -32 -3
-35 -5z"/>
<path d="M6385 6952 c-11 -11 -4 -18 20 -17 37 0 53 22 15 22 -16 0 -32 -3
-35 -5z"/>
<path d="M6625 6952 c-11 -11 -4 -18 20 -17 37 0 53 22 15 22 -16 0 -32 -3
-35 -5z"/>
<path d="M6865 6952 c-11 -11 -4 -18 20 -17 37 0 53 22 15 22 -16 0 -32 -3
-35 -5z"/>
<path d="M33 6818 c-6 -7 -13 -22 -17 -32 -5 -15 -4 -17 7 -8 8 7 16 9 19 6 3
-2 6 7 6 21 0 29 -2 30 -15 13z"/>
<path d="M6950 6640 c-12 -8 -12 -10 3 -16 9 -3 17 -10 17 -15 0 -4 -6 -6 -14
-3 -9 3 -13 -2 -12 -18 1 -13 -2 -29 -8 -37 -8 -10 -5 -18 11 -30 20 -17 20
-18 2 -29 -16 -10 -17 -15 -7 -26 7 -8 16 -12 21 -9 4 2 7 0 7 -5 0 -6 -7 -13
-16 -16 -9 -3 -14 -12 -11 -20 3 -8 3 -17 -1 -21 -11 -11 -9 -51 3 -61 14 -12
35 -16 36 -6 6 66 3 82 -16 83 -15 0 -16 2 -5 7 8 4 16 19 18 34 3 23 0 27
-15 22 -16 -6 -15 -5 2 9 11 8 17 18 13 22 -3 4 -3 19 2 34 4 16 4 34 0 41 -4
7 -4 26 0 41 9 31 -1 37 -30 19z m25 -69 c3 -5 1 -12 -4 -16 -6 -3 -7 -13 -4
-23 5 -14 3 -15 -7 -5 -10 10 -11 15 -1 27 9 11 9 15 -1 19 -9 4 -9 6 -1 6 6
1 14 -3 18 -8z m-8 -177 c-3 -3 -2 -16 3 -28 6 -16 5 -23 -4 -23 -7 0 -11 12
-10 26 2 30 2 31 11 31 3 0 4 -3 0 -6z"/>
<path d="M33 6578 c-6 -7 -13 -22 -17 -32 -5 -15 -4 -17 7 -8 8 7 16 9 19 6 3
-2 6 7 6 21 0 29 -2 30 -15 13z"/>
<path d="M33 6338 c-6 -7 -13 -22 -17 -32 -5 -15 -4 -17 7 -8 8 7 16 9 19 6 3
-2 6 7 6 21 0 29 -2 30 -15 13z"/>
<path d="M6933 6115 c0 -9 4 -14 9 -13 5 2 10 8 10 13 0 5 -5 11 -10 13 -5 1
-9 -4 -9 -13z"/>
<path d="M33 6098 c-6 -7 -13 -22 -17 -32 -5 -15 -4 -17 7 -8 8 7 16 9 19 6 3
-2 6 7 6 21 0 29 -2 30 -15 13z"/>
<path d="M33 5858 c-6 -7 -13 -22 -17 -32 -5 -15 -4 -17 7 -8 8 7 16 9 19 6 3
-2 6 7 6 21 0 29 -2 30 -15 13z"/>
<path d="M6933 5635 c0 -9 4 -14 9 -13 5 2 10 8 10 13 0 5 -5 11 -10 13 -5 1
-9 -4 -9 -13z"/>
<path d="M33 5618 c-6 -7 -13 -22 -17 -32 -5 -15 -4 -17 7 -8 8 7 16 9 19 6 3
-2 6 7 6 21 0 29 -2 30 -15 13z"/>
<path d="M33 5378 c-6 -7 -13 -22 -17 -32 -5 -15 -4 -17 7 -8 8 7 16 9 19 6 3
-2 6 7 6 21 0 29 -2 30 -15 13z"/>
<path d="M33 5138 c-6 -7 -13 -22 -17 -32 -5 -15 -4 -17 7 -8 8 7 16 9 19 6 3
-2 6 7 6 21 0 29 -2 30 -15 13z"/>
<path d="M6950 5040 c-12 -8 -12 -10 3 -16 9 -3 17 -10 17 -15 0 -4 -6 -6 -14
-3 -9 3 -13 -2 -12 -18 1 -13 -2 -29 -8 -37 -8 -10 -5 -18 11 -30 20 -17 20
-18 2 -29 -16 -10 -17 -15 -7 -26 7 -8 16 -12 21 -9 4 2 7 0 7 -5 0 -6 -7 -12
-15 -16 -21 -8 -19 -25 3 -19 11 3 19 15 20 33 2 24 -1 28 -15 23 -15 -5 -14
-3 2 10 11 8 17 18 13 22 -3 4 -3 19 2 34 4 16 4 34 0 41 -4 7 -4 26 0 41 9
31 -1 37 -30 19z m25 -69 c3 -5 1 -12 -4 -16 -6 -3 -7 -13 -4 -23 5 -14 3 -15
-7 -5 -10 10 -11 15 -1 27 9 11 9 15 -1 19 -9 4 -9 6 -1 6 6 1 14 -3 18 -8z"/>
<path d="M33 4898 c-6 -7 -13 -22 -17 -32 -5 -15 -4 -17 7 -8 8 7 16 9 19 6 3
-2 6 7 6 21 0 29 -2 30 -15 13z"/>
<path d="M6950 4720 c-12 -8 -12 -10 3 -16 9 -3 17 -10 17 -15 0 -4 -6 -6 -14
-3 -9 3 -13 -2 -12 -18 1 -13 -2 -29 -8 -37 -8 -10 -5 -18 11 -30 20 -17 20
-18 2 -29 -16 -10 -17 -15 -7 -26 7 -8 16 -12 21 -9 4 2 7 0 7 -5 0 -6 -7 -12
-15 -16 -21 -8 -19 -25 3 -19 11 3 19 15 20 33 2 24 -1 28 -15 23 -15 -5 -14
-3 2 10 11 8 17 18 13 22 -3 4 -3 19 2 34 4 16 4 34 0 41 -4 7 -4 26 0 41 9
31 -1 37 -30 19z m25 -69 c3 -5 1 -12 -4 -16 -6 -3 -7 -13 -4 -23 5 -14 3 -15
-7 -5 -10 10 -11 15 -1 27 9 11 9 15 -1 19 -9 4 -9 6 -1 6 6 1 14 -3 18 -8z"/>
<path d="M33 4658 c-6 -7 -13 -22 -17 -32 -5 -15 -4 -17 7 -8 8 7 16 9 19 6 3
-2 6 7 6 21 0 29 -2 30 -15 13z"/>
<path d="M33 4418 c-6 -7 -13 -22 -17 -32 -5 -15 -4 -17 7 -8 8 7 16 9 19 6 3
-2 6 7 6 21 0 29 -2 30 -15 13z"/>
<path d="M6950 4400 c-12 -8 -12 -10 3 -16 9 -3 17 -10 17 -15 0 -4 -6 -6 -14
-3 -9 3 -13 -2 -12 -18 1 -13 -2 -29 -8 -37 -8 -10 -5 -18 11 -30 20 -17 20
-18 2 -29 -16 -10 -17 -15 -7 -26 7 -8 16 -12 21 -9 4 2 7 0 7 -5 0 -6 -7 -12
-15 -16 -21 -8 -19 -25 3 -19 11 3 19 15 20 33 2 24 -1 28 -15 23 -15 -5 -14
-3 2 10 11 8 17 18 13 22 -3 4 -3 19 2 34 4 16 4 34 0 41 -4 7 -4 26 0 41 9
31 -1 37 -30 19z m25 -69 c3 -5 1 -12 -4 -16 -6 -3 -7 -13 -4 -23 5 -14 3 -15
-7 -5 -10 10 -11 15 -1 27 9 11 9 15 -1 19 -9 4 -9 6 -1 6 6 1 14 -3 18 -8z"/>
<path d="M33 4178 c-6 -7 -13 -22 -17 -32 -5 -15 -4 -17 7 -8 8 7 16 9 19 6 3
-2 6 7 6 21 0 29 -2 30 -15 13z"/>
<path d="M6950 4080 c-12 -8 -12 -10 3 -16 9 -3 17 -10 17 -15 0 -4 -6 -6 -14
-3 -9 3 -13 -2 -12 -18 1 -13 -2 -29 -8 -37 -8 -10 -5 -18 11 -30 20 -17 20
-18 2 -29 -16 -10 -17 -15 -7 -26 7 -8 16 -12 21 -9 4 2 7 0 7 -5 0 -6 -7 -13
-16 -16 -9 -3 -14 -12 -11 -20 3 -8 3 -17 -1 -21 -11 -11 -9 -51 3 -61 14 -12
35 -16 36 -6 6 66 3 82 -16 83 -15 0 -16 2 -5 7 8 4 16 19 18 34 3 23 0 27
-15 22 -16 -6 -15 -5 2 9 11 8 17 18 13 22 -3 4 -3 19 2 34 4 16 4 34 0 41 -4
7 -4 26 0 41 9 31 -1 37 -30 19z m25 -69 c3 -5 1 -12 -4 -16 -6 -3 -7 -13 -4
-23 5 -14 3 -15 -7 -5 -10 10 -11 15 -1 27 9 11 9 15 -1 19 -9 4 -9 6 -1 6 6
1 14 -3 18 -8z m-8 -177 c-3 -3 -2 -16 3 -28 6 -16 5 -23 -4 -23 -7 0 -11 12
-10 26 2 30 2 31 11 31 3 0 4 -3 0 -6z"/>
<path d="M33 3938 c-6 -7 -13 -22 -17 -32 -5 -15 -4 -17 7 -8 8 7 16 9 19 6 3
-2 6 7 6 21 0 29 -2 30 -15 13z"/>
<path d="M33 3698 c-6 -7 -13 -22 -17 -32 -5 -15 -4 -17 7 -8 8 7 16 9 19 6 3
-2 6 7 6 21 0 29 -2 30 -15 13z"/>
<path d="M6933 3555 c0 -9 4 -14 9 -13 5 2 10 8 10 13 0 5 -5 11 -10 13 -5 1
-9 -4 -9 -13z"/>
<path d="M33 3458 c-6 -7 -13 -22 -17 -32 -5 -15 -4 -17 7 -8 8 7 16 9 19 6 3
-2 6 7 6 21 0 29 -2 30 -15 13z"/>
<path d="M33 3218 c-6 -7 -13 -22 -17 -32 -5 -15 -4 -17 7 -8 8 7 16 9 19 6 3
-2 6 7 6 21 0 29 -2 30 -15 13z"/>
<path d="M6933 3075 c0 -9 4 -14 9 -13 5 2 10 8 10 13 0 5 -5 11 -10 13 -5 1
-9 -4 -9 -13z"/>
<path d="M33 2978 c-6 -7 -13 -22 -17 -32 -5 -15 -4 -17 7 -8 8 7 16 9 19 6 3
-2 6 7 6 21 0 29 -2 30 -15 13z"/>
<path d="M33 2738 c-6 -7 -13 -22 -17 -32 -5 -15 -4 -17 7 -8 8 7 16 9 19 6 3
-2 6 7 6 21 0 29 -2 30 -15 13z"/>
<path d="M6933 2595 c0 -9 4 -14 9 -13 5 2 10 8 10 13 0 5 -5 11 -10 13 -5 1
-9 -4 -9 -13z"/>
<path d="M33 2498 c-6 -7 -13 -22 -17 -32 -5 -15 -4 -17 7 -8 8 7 16 9 19 6 3
-2 6 7 6 21 0 29 -2 30 -15 13z"/>
<path d="M6950 2480 c-12 -8 -12 -10 3 -16 9 -3 17 -10 17 -15 0 -4 -6 -6 -14
-3 -9 3 -13 -2 -12 -18 1 -13 -2 -29 -8 -37 -8 -10 -5 -18 11 -30 20 -17 20
-18 2 -29 -16 -10 -17 -15 -7 -26 7 -8 16 -12 21 -9 4 2 7 0 7 -5 0 -6 -7 -12
-15 -16 -21 -8 -19 -25 3 -19 11 3 19 15 20 33 2 24 -1 28 -15 23 -15 -5 -14
-3 2 10 11 8 17 18 13 22 -3 4 -3 19 2 34 4 16 4 34 0 41 -4 7 -4 26 0 41 9
31 -1 37 -30 19z m25 -69 c3 -5 1 -12 -4 -16 -6 -3 -7 -13 -4 -23 5 -14 3 -15
-7 -5 -10 10 -11 15 -1 27 9 11 9 15 -1 19 -9 4 -9 6 -1 6 6 1 14 -3 18 -8z"/>
<path d="M33 2258 c-6 -7 -13 -22 -17 -32 -5 -15 -4 -17 7 -8 8 7 16 9 19 6 3
-2 6 7 6 21 0 29 -2 30 -15 13z"/>
<path d="M6950 2160 c-12 -8 -12 -10 3 -16 9 -3 17 -10 17 -15 0 -4 -6 -6 -14
-3 -9 3 -13 -2 -12 -18 1 -13 -2 -29 -8 -37 -8 -10 -5 -18 11 -30 20 -17 20
-18 2 -29 -16 -10 -17 -15 -7 -26 7 -8 16 -12 21 -9 4 2 7 0 7 -5 0 -6 -7 -13
-16 -16 -9 -3 -14 -12 -11 -20 3 -8 3 -17 -1 -21 -11 -11 -9 -51 3 -61 14 -12
35 -16 36 -6 6 66 3 82 -16 83 -15 0 -16 2 -5 7 8 4 16 19 18 34 3 23 0 27
-15 22 -16 -6 -15 -5 2 9 11 8 17 18 13 22 -3 4 -3 19 2 34 4 16 4 34 0 41 -4
7 -4 26 0 41 9 31 -1 37 -30 19z m25 -69 c3 -5 1 -12 -4 -16 -6 -3 -7 -13 -4
-23 5 -14 3 -15 -7 -5 -10 10 -11 15 -1 27 9 11 9 15 -1 19 -9 4 -9 6 -1 6 6
1 14 -3 18 -8z m-8 -177 c-3 -3 -2 -16 3 -28 6 -16 5 -23 -4 -23 -7 0 -11 12
-10 26 2 30 2 31 11 31 3 0 4 -3 0 -6z"/>
<path d="M33 2018 c-6 -7 -13 -22 -17 -32 -5 -15 -4 -17 7 -8 8 7 16 9 19 6 3
-2 6 7 6 21 0 29 -2 30 -15 13z"/>
<path d="M33 1778 c-6 -7 -13 -22 -17 -32 -5 -15 -4 -17 7 -8 8 7 16 9 19 6 3
-2 6 7 6 21 0 29 -2 30 -15 13z"/>
<path d="M6933 1635 c0 -9 4 -14 9 -13 5 2 10 8 10 13 0 5 -5 11 -10 13 -5 1
-9 -4 -9 -13z"/>
<path d="M33 1538 c-6 -7 -13 -22 -17 -32 -5 -15 -4 -17 7 -8 8 7 16 9 19 6 3
-2 6 7 6 21 0 29 -2 30 -15 13z"/>
<path d="M33 1298 c-6 -7 -13 -22 -17 -32 -5 -15 -4 -17 7 -8 8 7 16 9 19 6 3
-2 6 7 6 21 0 29 -2 30 -15 13z"/>
<path d="M6933 1155 c0 -9 4 -14 9 -13 5 2 10 8 10 13 0 5 -5 11 -10 13 -5 1
-9 -4 -9 -13z"/>
<path d="M33 1058 c-6 -7 -13 -22 -17 -32 -5 -15 -4 -17 7 -8 8 7 16 9 19 6 3
-2 6 7 6 21 0 29 -2 30 -15 13z"/>
<path d="M33 818 c-6 -7 -13 -22 -17 -32 -5 -15 -4 -17 7 -8 8 7 16 9 19 6 3
-2 6 7 6 21 0 29 -2 30 -15 13z"/>
<path d="M6933 595 c0 -9 4 -14 9 -13 5 2 10 8 10 13 0 5 -5 11 -10 13 -5 1
-9 -4 -9 -13z"/>
<path d="M33 578 c-6 -7 -13 -22 -17 -32 -5 -15 -4 -17 7 -8 8 7 16 9 19 6 3
-2 6 7 6 21 0 29 -2 30 -15 13z"/>
<path d="M6933 355 c0 -9 4 -14 9 -13 5 2 10 8 10 13 0 5 -5 11 -10 13 -5 1
-9 -4 -9 -13z"/>
<path d="M33 338 c-6 -7 -13 -22 -17 -32 -5 -15 -4 -17 7 -8 8 7 16 9 19 6 3
-2 6 7 6 21 0 29 -2 30 -15 13z"/>
<path d="M40 120 c0 -5 5 -10 11 -10 5 0 7 5 4 10 -3 6 -8 10 -11 10 -2 0 -4
-4 -4 -10z"/>
<path d="M1371 57 c-6 -8 -8 -17 -4 -20 11 -12 19 -7 20 13 2 24 -1 25 -16 7z"/>
<path d="M1531 57 c-6 -8 -8 -17 -4 -20 11 -12 19 -7 20 13 2 24 -1 25 -16 7z"/>
<path d="M1691 57 c-6 -8 -8 -17 -4 -20 11 -12 19 -7 20 13 2 24 -1 25 -16 7z"/>
<path d="M1851 57 c-6 -8 -8 -17 -4 -20 11 -12 19 -7 20 13 2 24 -1 25 -16 7z"/>
<path d="M3291 57 c-6 -8 -8 -17 -4 -20 11 -12 19 -7 20 13 2 24 -1 25 -16 7z"/>
<path d="M3451 57 c-6 -8 -8 -17 -4 -20 11 -12 19 -7 20 13 2 24 -1 25 -16 7z"/>
<path d="M3611 57 c-6 -8 -8 -17 -4 -20 11 -12 19 -7 20 13 2 24 -1 25 -16 7z"/>
<path d="M3771 57 c-6 -8 -7 -17 -3 -22 4 -4 -6 0 -22 11 -28 17 -29 17 -42
-1 -13 -17 -15 -17 -32 -2 -12 11 -22 13 -32 7 -8 -5 -11 -10 -6 -10 5 0 3 -6
-3 -13 -9 -11 2 -14 62 -13 75 1 92 8 94 38 2 22 -1 22 -16 5z m-107 -22 c3
-8 1 -15 -4 -15 -6 0 -10 7 -10 15 0 8 2 15 4 15 2 0 6 -7 10 -15z m80 -14
c-4 -3 -9 0 -11 7 -3 6 -10 9 -15 6 -7 -4 -8 -2 -4 5 6 9 11 9 22 0 8 -6 12
-15 8 -18z"/>
<path d="M6491 57 c-6 -8 -8 -17 -4 -20 11 -12 19 -7 20 13 2 24 -1 25 -16 7z"/>
<path d="M6651 57 c-6 -8 -8 -17 -4 -20 11 -12 19 -7 20 13 2 24 -1 25 -16 7z"/>
<path d="M6811 57 c-6 -8 -8 -17 -4 -20 11 -12 19 -7 20 13 2 24 -1 25 -16 7z"/>
<path d="M139 48 c-11 -7 -11 -11 -1 -15 6 -2 10 -8 8 -12 -3 -4 4 -7 14 -7
11 0 18 7 17 18 -2 22 -19 29 -38 16z"/>
<path d="M253 36 l-21 -24 29 2 c24 1 28 4 23 20 -5 16 -4 17 9 5 8 -8 13 -17
10 -21 -2 -5 1 -8 6 -8 16 0 13 16 -5 34 -21 21 -27 20 -51 -8z"/>
<path d="M779 48 c-11 -7 -11 -11 -1 -15 6 -2 10 -8 8 -12 -3 -4 4 -7 14 -7
11 0 18 7 17 18 -2 22 -19 29 -38 16z"/>
<path d="M893 36 l-21 -24 29 2 c24 1 28 4 23 20 -5 16 -4 17 9 5 8 -8 13 -17
10 -21 -2 -5 1 -8 6 -8 16 0 13 16 -5 34 -21 21 -27 20 -51 -8z"/>
<path d="M1260 49 c-11 -8 -12 -12 -2 -16 6 -2 10 -8 8 -11 -2 -4 20 -7 50 -8
30 0 54 3 54 7 0 26 -82 48 -110 28z m40 -11 c0 -4 -4 -8 -9 -8 -6 0 -12 4
-15 8 -3 5 1 9 9 9 8 0 15 -4 15 -9z m44 -17 c-4 -3 -9 0 -11 7 -3 6 -10 9
-15 6 -7 -4 -8 -2 -4 5 6 9 11 9 22 0 8 -6 12 -15 8 -18z"/>
<path d="M1400 50 c-8 -5 -11 -10 -6 -10 5 0 4 -6 -2 -13 -9 -11 3 -13 63 -13
41 1 75 4 75 8 0 4 -12 15 -26 25 -25 16 -27 16 -40 -2 -13 -17 -15 -17 -32
-2 -12 11 -22 13 -32 7z m24 -15 c3 -8 1 -15 -4 -15 -6 0 -10 7 -10 15 0 8 2
15 4 15 2 0 6 -7 10 -15z m80 -14 c-4 -3 -9 0 -11 7 -3 6 -10 9 -15 6 -7 -4
-8 -2 -4 5 6 9 11 9 22 0 8 -6 12 -15 8 -18z"/>
<path d="M1560 50 c-8 -5 -11 -10 -6 -10 5 0 4 -6 -2 -13 -9 -11 3 -13 63 -13
41 1 75 4 75 8 0 4 -12 15 -26 25 -25 16 -27 16 -40 -2 -13 -17 -15 -17 -32
-2 -12 11 -22 13 -32 7z m24 -15 c3 -8 1 -15 -4 -15 -6 0 -10 7 -10 15 0 8 2
15 4 15 2 0 6 -7 10 -15z m80 -14 c-4 -3 -9 0 -11 7 -3 6 -10 9 -15 6 -7 -4
-8 -2 -4 5 6 9 11 9 22 0 8 -6 12 -15 8 -18z"/>
<path d="M1720 50 c-8 -5 -11 -10 -6 -10 5 0 4 -6 -2 -13 -9 -11 3 -13 63 -13
41 1 75 4 75 8 0 4 -12 15 -26 25 -25 16 -27 16 -40 -2 -13 -17 -15 -17 -32
-2 -12 11 -22 13 -32 7z m24 -15 c3 -8 1 -15 -4 -15 -6 0 -10 7 -10 15 0 8 2
15 4 15 2 0 6 -7 10 -15z m80 -14 c-4 -3 -9 0 -11 7 -3 6 -10 9 -15 6 -7 -4
-8 -2 -4 5 6 9 11 9 22 0 8 -6 12 -15 8 -18z"/>
<path d="M1880 50 c-8 -5 -11 -10 -6 -10 5 0 3 -6 -3 -14 -9 -11 -5 -13 28
-12 31 1 39 5 38 19 -1 10 -7 15 -13 13 -6 -2 -16 0 -20 4 -5 5 -15 5 -24 0z
m24 -15 c3 -8 1 -15 -4 -15 -6 0 -10 7 -10 15 0 8 2 15 4 15 2 0 6 -7 10 -15z"/>
<path d="M2013 36 l-21 -24 29 2 c24 1 28 4 23 20 -5 16 -4 17 9 5 8 -8 13
-17 10 -21 -2 -5 1 -8 6 -8 16 0 13 16 -5 34 -21 21 -27 20 -51 -8z"/>
<path d="M2379 48 c-11 -7 -11 -11 -1 -15 6 -2 10 -8 8 -12 -3 -4 4 -7 14 -7
11 0 18 7 17 18 -2 22 -19 29 -38 16z"/>
<path d="M2493 36 l-21 -24 29 2 c24 1 28 4 23 20 -5 16 -4 17 9 5 8 -8 13
-17 10 -21 -2 -5 1 -8 6 -8 16 0 13 16 -5 34 -21 21 -27 20 -51 -8z"/>
<path d="M2859 48 c-11 -7 -11 -11 -1 -15 6 -2 10 -8 8 -12 -3 -4 4 -7 14 -7
11 0 18 7 17 18 -2 22 -19 29 -38 16z"/>
<path d="M2973 36 l-21 -24 29 2 c24 1 28 4 23 20 -5 16 -4 17 9 5 8 -8 13
-17 10 -21 -2 -5 1 -8 6 -8 16 0 13 16 -5 34 -21 21 -27 20 -51 -8z"/>
<path d="M3320 50 c-8 -5 -11 -10 -6 -10 5 0 4 -6 -2 -13 -9 -11 3 -13 63 -13
41 1 75 4 75 8 0 4 -12 15 -26 25 -25 16 -27 16 -40 -2 -13 -17 -15 -17 -32
-2 -12 11 -22 13 -32 7z m24 -15 c3 -8 1 -15 -4 -15 -6 0 -10 7 -10 15 0 8 2
15 4 15 2 0 6 -7 10 -15z m80 -14 c-4 -3 -9 0 -11 7 -3 6 -10 9 -15 6 -7 -4
-8 -2 -4 5 6 9 11 9 22 0 8 -6 12 -15 8 -18z"/>
<path d="M3480 50 c-8 -5 -11 -10 -6 -10 5 0 4 -6 -2 -13 -9 -11 3 -13 63 -13
41 1 75 4 75 8 0 4 -12 15 -26 25 -25 16 -27 16 -40 -2 -13 -17 -15 -17 -32
-2 -12 11 -22 13 -32 7z m24 -15 c3 -8 1 -15 -4 -15 -6 0 -10 7 -10 15 0 8 2
15 4 15 2 0 6 -7 10 -15z m80 -14 c-4 -3 -9 0 -11 7 -3 6 -10 9 -15 6 -7 -4
-8 -2 -4 5 6 9 11 9 22 0 8 -6 12 -15 8 -18z"/>
<path d="M3979 48 c-11 -7 -11 -11 -1 -15 6 -2 10 -8 8 -12 -3 -4 4 -7 14 -7
11 0 18 7 17 18 -2 22 -19 29 -38 16z"/>
<path d="M4093 36 l-21 -24 29 2 c24 1 28 4 23 20 -5 16 -4 17 9 5 8 -8 13
-17 10 -21 -2 -5 1 -8 6 -8 16 0 13 16 -5 34 -21 21 -27 20 -51 -8z"/>
<path d="M4619 48 c-11 -7 -11 -11 -1 -15 6 -2 10 -8 8 -12 -3 -4 4 -7 14 -7
11 0 18 7 17 18 -2 22 -19 29 -38 16z"/>
<path d="M4733 36 l-21 -24 29 2 c24 1 28 4 23 20 -5 16 -4 17 9 5 8 -8 13
-17 10 -21 -2 -5 1 -8 6 -8 16 0 13 16 -5 34 -21 21 -27 20 -51 -8z"/>
<path d="M5259 48 c-11 -7 -11 -11 -1 -15 6 -2 10 -8 8 -12 -3 -4 4 -7 14 -7
11 0 18 7 17 18 -2 22 -19 29 -38 16z"/>
<path d="M5373 36 l-21 -24 29 2 c24 1 28 4 23 20 -5 16 -4 17 9 5 8 -8 13
-17 10 -21 -2 -5 1 -8 6 -8 16 0 13 16 -5 34 -21 21 -27 20 -51 -8z"/>
<path d="M5899 48 c-11 -7 -11 -11 -1 -15 6 -2 10 -8 8 -12 -3 -4 4 -7 14 -7
11 0 18 7 17 18 -2 22 -19 29 -38 16z"/>
<path d="M6013 36 l-21 -24 29 2 c24 1 28 4 23 20 -5 16 -4 17 9 5 8 -8 13
-17 10 -21 -2 -5 1 -8 6 -8 16 0 13 16 -5 34 -21 21 -27 20 -51 -8z"/>
<path d="M6380 49 c-11 -8 -12 -12 -2 -16 6 -2 10 -8 8 -11 -2 -4 20 -7 50 -8
30 0 54 3 54 7 0 26 -82 48 -110 28z m40 -11 c0 -4 -4 -8 -9 -8 -6 0 -12 4
-15 8 -3 5 1 9 9 9 8 0 15 -4 15 -9z m44 -17 c-4 -3 -9 0 -11 7 -3 6 -10 9
-15 6 -7 -4 -8 -2 -4 5 6 9 11 9 22 0 8 -6 12 -15 8 -18z"/>
<path d="M6520 50 c-8 -5 -11 -10 -6 -10 5 0 4 -6 -2 -13 -9 -11 3 -13 63 -13
41 1 75 4 75 8 0 4 -12 15 -26 25 -25 16 -27 16 -40 -2 -13 -17 -15 -17 -32
-2 -12 11 -22 13 -32 7z m24 -15 c3 -8 1 -15 -4 -15 -6 0 -10 7 -10 15 0 8 2
15 4 15 2 0 6 -7 10 -15z m80 -14 c-4 -3 -9 0 -11 7 -3 6 -10 9 -15 6 -7 -4
-8 -2 -4 5 6 9 11 9 22 0 8 -6 12 -15 8 -18z"/>
<path d="M6680 50 c-8 -5 -11 -10 -6 -10 5 0 4 -6 -2 -13 -9 -11 3 -13 63 -13
41 1 75 4 75 8 0 4 -12 15 -26 25 -25 16 -27 16 -40 -2 -13 -17 -15 -17 -32
-2 -12 11 -22 13 -32 7z m24 -15 c3 -8 1 -15 -4 -15 -6 0 -10 7 -10 15 0 8 2
15 4 15 2 0 6 -7 10 -15z m80 -14 c-4 -3 -9 0 -11 7 -3 6 -10 9 -15 6 -7 -4
-8 -2 -4 5 6 9 11 9 22 0 8 -6 12 -15 8 -18z"/>
<path d="M6840 50 c-8 -5 -11 -10 -6 -10 5 0 3 -6 -3 -14 -9 -11 -5 -13 24
-13 39 1 43 7 17 30 -12 11 -22 13 -32 7z m24 -15 c3 -8 1 -15 -4 -15 -6 0
-10 7 -10 15 0 8 2 15 4 15 2 0 6 -7 10 -15z"/>
<path d="M342 38 c-7 -7 -12 -16 -12 -20 0 -15 15 -8 28 12 13 22 3 27 -16 8z"/>
<path d="M418 28 c12 -12 25 -19 28 -15 4 4 -1 14 -12 22 -29 22 -41 18 -16
-7z"/>
<path d="M982 38 c-7 -7 -12 -16 -12 -20 0 -15 15 -8 28 12 13 22 3 27 -16 8z"/>
<path d="M1058 28 c12 -12 25 -19 28 -15 4 4 -1 14 -12 22 -29 22 -41 18 -16
-7z"/>
<path d="M2102 38 c-7 -7 -12 -16 -12 -20 0 -15 15 -8 28 12 13 22 3 27 -16 8z"/>
<path d="M2178 28 c12 -12 25 -19 28 -15 4 4 -1 14 -12 22 -29 22 -41 18 -16
-7z"/>
<path d="M2582 38 c-7 -7 -12 -16 -12 -20 0 -15 15 -8 28 12 13 22 3 27 -16 8z"/>
<path d="M2658 28 c12 -12 25 -19 28 -15 4 4 -1 14 -12 22 -29 22 -41 18 -16
-7z"/>
<path d="M3062 38 c-7 -7 -12 -16 -12 -20 0 -15 15 -8 28 12 13 22 3 27 -16 8z"/>
<path d="M3138 28 c12 -12 25 -19 28 -15 4 4 -1 14 -12 22 -29 22 -41 18 -16
-7z"/>
<path d="M4182 38 c-7 -7 -12 -16 -12 -20 0 -15 15 -8 28 12 13 22 3 27 -16 8z"/>
<path d="M4258 28 c12 -12 25 -19 28 -15 4 4 -1 14 -12 22 -29 22 -41 18 -16
-7z"/>
<path d="M4822 38 c-7 -7 -12 -16 -12 -20 0 -15 15 -8 28 12 13 22 3 27 -16 8z"/>
<path d="M4898 28 c12 -12 25 -19 28 -15 4 4 -1 14 -12 22 -29 22 -41 18 -16
-7z"/>
<path d="M5462 38 c-7 -7 -12 -16 -12 -20 0 -15 15 -8 28 12 13 22 3 27 -16 8z"/>
<path d="M5538 28 c12 -12 25 -19 28 -15 4 4 -1 14 -12 22 -29 22 -41 18 -16
-7z"/>
<path d="M6102 38 c-7 -7 -12 -16 -12 -20 0 -15 15 -8 28 12 13 22 3 27 -16 8z"/>
<path d="M6178 28 c12 -12 25 -19 28 -15 4 4 -1 14 -12 22 -29 22 -41 18 -16
-7z"/>
</g>
</svg>
